<svg width="45" height="29" viewBox="0 0 45 29" fill="none" xmlns="http://www.w3.org/2000/svg">
<rect width="45" height="29" fill="white"/>
<path fill-rule="evenodd" clip-rule="evenodd" d="M7.05424 11.4944L6.26007 9.89135L5.47076 11.4944H7.05424ZM24.5287 10.8583C24.3717 10.9324 24.183 10.9405 23.9558 10.9405H22.547V10.0453H23.9744C24.1782 10.0453 24.3897 10.0516 24.5272 10.1137C24.6752 10.1752 24.7692 10.2998 24.7692 10.4711C24.7692 10.6486 24.678 10.787 24.5287 10.8583ZM34.5707 11.4944L33.7718 9.89135L32.9776 11.4944H34.5707ZM15.8516 13.2329H14.6635L14.6565 10.0804L12.9779 13.2329H11.9605L10.2729 10.0734V13.2329H7.9152L7.47151 12.3344H5.05754L4.60963 13.2329H3.34972L5.42245 9.20243H7.1468L9.11724 13.0209V9.20243H11.0117L12.5266 11.939L13.9212 9.20243H15.8516V13.2329ZM20.5852 13.2329H16.7132V9.20243H20.5849V10.0453H17.8752V10.7687H20.5187V11.5972L17.8752 11.5937V12.3987H20.585L20.5852 13.2329ZM26.0457 10.2912C26.0457 10.9284 25.5302 11.2652 25.2316 11.3645C25.4845 11.4455 25.6994 11.5845 25.8002 11.7052C25.964 11.9017 25.9966 12.0856 25.9966 12.44V13.2329H24.8273L24.8237 12.7261C24.8237 12.4865 24.8513 12.1372 24.6357 11.9442C24.4664 11.8 24.2114 11.7701 23.7927 11.7701H22.5472V13.2329H21.3889V9.20243H24.0572C24.6462 9.20243 25.0844 9.2186 25.4603 9.39784C25.8273 9.57587 26.0457 9.83947 26.0457 10.2912ZM26.7196 13.2329H27.902V9.20189H26.7196V13.2329ZM41.6208 13.2329H39.9767L37.779 10.2107L37.783 13.2329H35.4222L34.9701 12.3344H32.5596L32.1262 13.2329H30.7694C30.2041 13.2329 29.4895 13.1284 29.0894 12.7888C28.6775 12.4446 28.4694 11.9833 28.4694 11.2484C28.4694 10.6509 28.5958 10.1051 29.0935 9.67357C29.4688 9.35188 30.0542 9.20243 30.8538 9.20243H31.974V10.0655H30.8786C30.4551 10.0655 30.214 10.1194 29.983 10.3062C29.7881 10.4762 29.6499 10.7967 29.6499 11.2203C29.6499 11.6529 29.7536 11.9608 29.972 12.1671C30.1461 12.3251 30.4716 12.3728 30.7778 12.3728H31.299L32.9321 9.20243H34.6683L36.6316 13.0152V9.20229H38.3989L40.4356 12.0091V9.20229H41.6208V13.2329ZM3.33594 14.0269H5.31675L5.7632 13.1284H6.76261L7.2076 14.0269H11.1055V13.3409L11.4541 14.0292H13.4739L13.821 13.3323V14.0269H23.5064L23.5015 12.5566H23.6889C23.8209 12.559 23.8603 12.5716 23.8603 12.7526V14.0269H28.8662V13.6851C29.2705 13.8655 29.9002 14.0269 30.724 14.0269H32.8326L33.2824 13.1284H34.2833L34.7291 14.0269H38.7859V13.1749L39.4017 14.0269H42.6507V8.40381H39.4341V9.06969L38.9851 8.40394H35.6784V9.06969L35.265 8.40394H30.8021C30.0543 8.40394 29.3957 8.48938 28.8664 8.73183V8.40381H25.7902V8.73183C25.4481 8.48251 24.9884 8.40381 24.4791 8.40381H13.2267L12.4685 9.85793L11.6972 8.40381H8.15383V9.06969L7.76055 8.40394H4.73883L2.08594 14.0269H3.33594Z" fill="url(#paint0_radial_22_10309)"/>
<path fill-rule="evenodd" clip-rule="evenodd" d="M7.05424 11.4944L6.26007 9.89135L5.47076 11.4944H7.05424ZM24.5287 10.8583C24.3717 10.9324 24.183 10.9405 23.9558 10.9405H22.547V10.0453H23.9744C24.1782 10.0453 24.3897 10.0516 24.5272 10.1137C24.6752 10.1752 24.7692 10.2998 24.7692 10.4711C24.7692 10.6486 24.678 10.787 24.5287 10.8583ZM34.5707 11.4944L33.7718 9.89135L32.9776 11.4944H34.5707ZM15.8516 13.2329H14.6635L14.6565 10.0804L12.9779 13.2329H11.9605L10.2729 10.0734V13.2329H7.9152L7.47151 12.3344H5.05754L4.60963 13.2329H3.34972L5.42245 9.20243H7.1468L9.11724 13.0209V9.20243H11.0117L12.5266 11.939L13.9212 9.20243H15.8516V13.2329ZM20.5852 13.2329H16.7132V9.20243H20.5849V10.0453H17.8752V10.7687H20.5187V11.5972L17.8752 11.5937V12.3987H20.585L20.5852 13.2329ZM26.0457 10.2912C26.0457 10.9284 25.5302 11.2652 25.2316 11.3645C25.4845 11.4455 25.6994 11.5845 25.8002 11.7052C25.964 11.9017 25.9966 12.0856 25.9966 12.44V13.2329H24.8273L24.8237 12.7261C24.8237 12.4865 24.8513 12.1372 24.6357 11.9442C24.4664 11.8 24.2114 11.7701 23.7927 11.7701H22.5472V13.2329H21.3889V9.20243H24.0572C24.6462 9.20243 25.0844 9.2186 25.4603 9.39784C25.8273 9.57587 26.0457 9.83947 26.0457 10.2912ZM26.7196 13.2329H27.902V9.20189H26.7196V13.2329ZM41.6208 13.2329H39.9767L37.779 10.2107L37.783 13.2329H35.4222L34.9701 12.3344H32.5596L32.1262 13.2329H30.7694C30.2041 13.2329 29.4895 13.1284 29.0894 12.7888C28.6775 12.4446 28.4694 11.9833 28.4694 11.2484C28.4694 10.6509 28.5958 10.1051 29.0935 9.67357C29.4688 9.35188 30.0542 9.20243 30.8538 9.20243H31.974V10.0655H30.8786C30.4551 10.0655 30.214 10.1194 29.983 10.3062C29.7881 10.4762 29.6499 10.7967 29.6499 11.2203C29.6499 11.6529 29.7536 11.9608 29.972 12.1671C30.1461 12.3251 30.4716 12.3728 30.7778 12.3728H31.299L32.9321 9.20243H34.6683L36.6316 13.0152V9.20229H38.3989L40.4356 12.0091V9.20229H41.6208V13.2329ZM3.33594 14.0269H5.31675L5.7632 13.1284H6.76261L7.2076 14.0269H11.1055V13.3409L11.4541 14.0292H13.4739L13.821 13.3323V14.0269H23.5064L23.5015 12.5566H23.6889C23.8209 12.559 23.8603 12.5716 23.8603 12.7526V14.0269H28.8662V13.6851C29.2705 13.8655 29.9002 14.0269 30.724 14.0269H32.8326L33.2824 13.1284H34.2833L34.7291 14.0269H38.7859V13.1749L39.4017 14.0269H42.6507V8.40381H39.4341V9.06969L38.9851 8.40394H35.6784V9.06969L35.265 8.40394H30.8021C30.0543 8.40394 29.3957 8.48938 28.8664 8.73183V8.40381H25.7902V8.73183C25.4481 8.48251 24.9884 8.40381 24.4791 8.40381H13.2267L12.4685 9.85793L11.6972 8.40381H8.15383V9.06969L7.76055 8.40394H4.73883L2.08594 14.0269H3.33594Z" fill="black" fill-opacity="0.2"/>
<path fill-rule="evenodd" clip-rule="evenodd" d="M42.6984 17.3505C42.4078 16.8852 42.3357 17.0408 41.7018 16.6996C41.4605 16.5696 39.776 16.6277 39.776 16.6277C39.5653 16.6277 39.4249 16.6346 39.3116 16.6996C39.19 16.7638 39.1388 16.8645 39.1388 16.9925C39.1388 17.142 39.2425 17.2454 39.3965 17.2902C39.5128 17.3258 39.6475 17.335 39.8451 17.3374L40.4658 17.3505C41.0988 17.3654 41.5254 17.4551 41.7844 17.6739C41.828 17.7063 41.859 17.7447 41.8922 17.7757C41.8922 17.7757 42.1102 18.2524 42.1006 18.5748C42.0919 18.8642 41.8922 19.2861 41.8922 19.2861V20.3365C41.8922 20.3365 42.1576 20.2313 42.384 19.9692C42.723 19.5767 42.8663 19.2346 42.9006 18.7171C42.931 18.2588 42.9418 17.7401 42.6984 17.3505ZM41.8922 19.2861C41.6075 19.6298 41.0595 19.8027 40.3159 19.8027H38.0765V18.9363H40.3089C40.5266 18.9363 40.6829 18.9116 40.779 18.8363C40.8568 18.7771 40.9165 18.6857 40.9165 18.5748C40.9165 18.456 40.857 18.3618 40.7761 18.3077C40.6856 18.244 40.566 18.2181 40.3656 18.2158C39.2779 18.1876 37.9197 18.244 37.9197 16.969C37.9197 16.3848 38.3683 15.7694 39.5805 15.7694H41.5558V16.6996H41.7018L42.5703 17.1671V14.9673H39.7451C39.0968 14.9673 38.6275 15.0948 38.2924 15.2983V14.9673H35.118C34.6154 14.9673 34.0205 15.0724 33.7344 15.2983L33.7386 14.9673H28.0706V15.2983C27.6193 15.0277 26.8605 14.9673 26.5046 14.9673H22.7717V15.2983C22.413 15.0099 21.6238 14.9673 21.1378 14.9673H16.9538L15.998 15.8314L15.1015 14.9673H8.85156V20.5938H14.9846L15.9716 19.7194L16.9011 20.5939L20.676 20.5962V19.2729H21.05C21.5483 19.2787 22.144 19.2638 22.6651 19.0764V20.5939H25.7815V19.1271H25.9314C26.1235 19.1271 26.1428 19.1363 26.1428 19.2942V20.5939H35.6127C36.2098 20.5939 36.8373 20.4659 37.1884 20.2359V20.5939H40.1928C40.8182 20.5939 41.4258 20.5221 41.8922 20.3365V19.2861ZM37.2666 17.6741C37.4932 17.8695 37.6135 18.1158 37.6135 18.5289C37.6135 19.3988 36.9604 19.8027 35.7938 19.8027H33.533V18.9363H35.7834C36.006 18.9363 36.16 18.9116 36.261 18.8363C36.3037 18.8027 36.3376 18.7621 36.3606 18.7171C36.3836 18.6722 36.3951 18.6237 36.3944 18.5748C36.3944 18.456 36.3322 18.3618 36.2527 18.3077C36.1636 18.244 36.0425 18.2181 35.8415 18.2158C34.7544 18.1876 33.4004 18.244 33.4004 16.969C33.4004 16.3848 33.842 15.7694 35.0528 15.7694H37.3799V16.6277H35.2567C35.0432 16.6277 34.9043 16.6346 34.7883 16.6996C34.6625 16.7638 34.6154 16.8645 34.6154 16.9925C34.6154 17.142 34.7232 17.2454 34.8704 17.2902C34.9893 17.3258 35.1178 17.335 35.3175 17.3374L35.9423 17.3505C36.5755 17.3654 37.0033 17.4552 37.2666 17.6741ZM26.8063 17.4269C26.6543 17.501 26.46 17.5086 26.2368 17.5086H24.8276V16.6054H26.2555C26.46 16.6054 26.6701 16.6087 26.8063 16.6749C26.9571 16.7427 27.0469 16.8668 27.0469 17.0408C27.0469 17.2115 26.9571 17.3505 26.8063 17.4269ZM27.5071 17.9285C27.7649 18.0061 27.9756 18.1486 28.0745 18.2663C28.2377 18.4641 28.2646 18.6477 28.2659 19.0023V19.8028H27.1049V19.2988C27.1049 19.0541 27.1333 18.6961 26.9162 18.51C26.7489 18.3618 26.4899 18.329 26.0682 18.329H24.8276V19.8027H23.6645V15.7694H26.3385C26.9272 15.7694 27.3551 15.7895 27.7345 15.9601C28.1001 16.1423 28.3269 16.398 28.3269 16.857C28.3269 17.4976 27.8127 17.8262 27.5071 17.9285ZM28.9716 15.7694H32.842V16.6054H30.1266V17.335H32.7742V18.1584H30.1265V18.9599L32.842 18.9644V19.8027H28.9716V15.7694ZM21.1536 17.6292H19.6524V16.6054H21.166C21.5843 16.6054 21.8738 16.7438 21.8738 17.0994C21.8738 17.4471 21.5981 17.6292 21.1536 17.6292ZM18.4982 19.4367L16.7223 17.7941L18.4985 16.2025L18.4982 19.4367ZM13.9037 18.9599H11.0541V18.1584H13.5984V17.335H11.0541V16.6054H13.9596L15.2252 17.778L13.9037 18.9599ZM23.1172 17.0994C23.1172 18.2158 22.115 18.4491 21.0989 18.4491H19.6524V19.8027H17.4028L15.975 18.4685L14.4918 19.8027H9.90203V15.7694H14.563L15.9889 17.0902L17.4623 15.7694H21.166C22.0867 15.7694 23.1172 15.9801 23.1172 17.0994Z" fill="url(#paint1_radial_22_10309)"/>
<path fill-rule="evenodd" clip-rule="evenodd" d="M42.6984 17.3505C42.4078 16.8852 42.3357 17.0408 41.7018 16.6996C41.4605 16.5696 39.776 16.6277 39.776 16.6277C39.5653 16.6277 39.4249 16.6346 39.3116 16.6996C39.19 16.7638 39.1388 16.8645 39.1388 16.9925C39.1388 17.142 39.2425 17.2454 39.3965 17.2902C39.5128 17.3258 39.6475 17.335 39.8451 17.3374L40.4658 17.3505C41.0988 17.3654 41.5254 17.4551 41.7844 17.6739C41.828 17.7063 41.859 17.7447 41.8922 17.7757C41.8922 17.7757 42.1102 18.2524 42.1006 18.5748C42.0919 18.8642 41.8922 19.2861 41.8922 19.2861V20.3365C41.8922 20.3365 42.1576 20.2313 42.384 19.9692C42.723 19.5767 42.8663 19.2346 42.9006 18.7171C42.931 18.2588 42.9418 17.7401 42.6984 17.3505ZM41.8922 19.2861C41.6075 19.6298 41.0595 19.8027 40.3159 19.8027H38.0765V18.9363H40.3089C40.5266 18.9363 40.6829 18.9116 40.779 18.8363C40.8568 18.7771 40.9165 18.6857 40.9165 18.5748C40.9165 18.456 40.857 18.3618 40.7761 18.3077C40.6856 18.244 40.566 18.2181 40.3656 18.2158C39.2779 18.1876 37.9197 18.244 37.9197 16.969C37.9197 16.3848 38.3683 15.7694 39.5805 15.7694H41.5558V16.6996H41.7018L42.5703 17.1671V14.9673H39.7451C39.0968 14.9673 38.6275 15.0948 38.2924 15.2983V14.9673H35.118C34.6154 14.9673 34.0205 15.0724 33.7344 15.2983L33.7386 14.9673H28.0706V15.2983C27.6193 15.0277 26.8605 14.9673 26.5046 14.9673H22.7717V15.2983C22.413 15.0099 21.6238 14.9673 21.1378 14.9673H16.9538L15.998 15.8314L15.1015 14.9673H8.85156V20.5938H14.9846L15.9716 19.7194L16.9011 20.5939L20.676 20.5962V19.2729H21.05C21.5483 19.2787 22.144 19.2638 22.6651 19.0764V20.5939H25.7815V19.1271H25.9314C26.1235 19.1271 26.1428 19.1363 26.1428 19.2942V20.5939H35.6127C36.2098 20.5939 36.8373 20.4659 37.1884 20.2359V20.5939H40.1928C40.8182 20.5939 41.4258 20.5221 41.8922 20.3365V19.2861ZM37.2666 17.6741C37.4932 17.8695 37.6135 18.1158 37.6135 18.5289C37.6135 19.3988 36.9604 19.8027 35.7938 19.8027H33.533V18.9363H35.7834C36.006 18.9363 36.16 18.9116 36.261 18.8363C36.3037 18.8027 36.3376 18.7621 36.3606 18.7171C36.3836 18.6722 36.3951 18.6237 36.3944 18.5748C36.3944 18.456 36.3322 18.3618 36.2527 18.3077C36.1636 18.244 36.0425 18.2181 35.8415 18.2158C34.7544 18.1876 33.4004 18.244 33.4004 16.969C33.4004 16.3848 33.842 15.7694 35.0528 15.7694H37.3799V16.6277H35.2567C35.0432 16.6277 34.9043 16.6346 34.7883 16.6996C34.6625 16.7638 34.6154 16.8645 34.6154 16.9925C34.6154 17.142 34.7232 17.2454 34.8704 17.2902C34.9893 17.3258 35.1178 17.335 35.3175 17.3374L35.9423 17.3505C36.5755 17.3654 37.0033 17.4552 37.2666 17.6741ZM26.8063 17.4269C26.6543 17.501 26.46 17.5086 26.2368 17.5086H24.8276V16.6054H26.2555C26.46 16.6054 26.6701 16.6087 26.8063 16.6749C26.9571 16.7427 27.0469 16.8668 27.0469 17.0408C27.0469 17.2115 26.9571 17.3505 26.8063 17.4269ZM27.5071 17.9285C27.7649 18.0061 27.9756 18.1486 28.0745 18.2663C28.2377 18.4641 28.2646 18.6477 28.2659 19.0023V19.8028H27.1049V19.2988C27.1049 19.0541 27.1333 18.6961 26.9162 18.51C26.7489 18.3618 26.4899 18.329 26.0682 18.329H24.8276V19.8027H23.6645V15.7694H26.3385C26.9272 15.7694 27.3551 15.7895 27.7345 15.9601C28.1001 16.1423 28.3269 16.398 28.3269 16.857C28.3269 17.4976 27.8127 17.8262 27.5071 17.9285ZM28.9716 15.7694H32.842V16.6054H30.1266V17.335H32.7742V18.1584H30.1265V18.9599L32.842 18.9644V19.8027H28.9716V15.7694ZM21.1536 17.6292H19.6524V16.6054H21.166C21.5843 16.6054 21.8738 16.7438 21.8738 17.0994C21.8738 17.4471 21.5981 17.6292 21.1536 17.6292ZM18.4982 19.4367L16.7223 17.7941L18.4985 16.2025L18.4982 19.4367ZM13.9037 18.9599H11.0541V18.1584H13.5984V17.335H11.0541V16.6054H13.9596L15.2252 17.778L13.9037 18.9599ZM23.1172 17.0994C23.1172 18.2158 22.115 18.4491 21.0989 18.4491H19.6524V19.8027H17.4028L15.975 18.4685L14.4918 19.8027H9.90203V15.7694H14.563L15.9889 17.0902L17.4623 15.7694H21.166C22.0867 15.7694 23.1172 15.9801 23.1172 17.0994Z" fill="black" fill-opacity="0.2"/>
<defs>
<radialGradient id="paint0_radial_22_10309" cx="0" cy="0" r="1" gradientUnits="userSpaceOnUse" gradientTransform="translate(8.82334 9.38105) scale(48.0774 6.66721)">
<stop stop-color="#88CDE7"/>
<stop offset="1" stop-color="#2274AD"/>
</radialGradient>
<radialGradient id="paint1_radial_22_10309" cx="0" cy="0" r="1" gradientUnits="userSpaceOnUse" gradientTransform="translate(14.5094 15.9451) scale(40.3736 6.67136)">
<stop stop-color="#88CDE7"/>
<stop offset="1" stop-color="#2274AD"/>
</radialGradient>
</defs>
</svg>
