<svg width="16" height="13" viewBox="0 0 16 13" fill="none" xmlns="http://www.w3.org/2000/svg">
<g clip-path="url(#clip0_77_2782)">
<path d="M8.20521 10.0853C8.32477 10.0853 8.44164 10.0553 8.54105 9.99899C8.64046 9.9427 8.71794 9.8627 8.7637 9.7691C8.80945 9.6755 8.82142 9.5725 8.7981 9.47313C8.77477 9.37376 8.7172 9.28249 8.63266 9.21085C8.54812 9.13921 8.4404 9.09042 8.32314 9.07065C8.20588 9.05089 8.08433 9.06103 7.97387 9.0998C7.86341 9.13858 7.769 9.20423 7.70258 9.28847C7.63616 9.37271 7.6007 9.47175 7.6007 9.57307C7.6007 9.70892 7.66439 9.83922 7.77776 9.93528C7.89113 10.0314 8.04488 10.0853 8.20521 10.0853ZM11.2277 10.0853C11.3473 10.0853 11.4642 10.0553 11.5636 9.99899C11.663 9.9427 11.7405 9.8627 11.7862 9.7691C11.832 9.6755 11.8439 9.5725 11.8206 9.47313C11.7973 9.37376 11.7397 9.28249 11.6552 9.21085C11.5706 9.13921 11.4629 9.09042 11.3457 9.07065C11.2284 9.05089 11.1069 9.06103 10.9964 9.0998C10.8859 9.13858 10.7915 9.20423 10.7251 9.28847C10.6587 9.37271 10.6232 9.47175 10.6232 9.57307C10.6232 9.70892 10.6869 9.83922 10.8003 9.93528C10.9137 10.0314 11.0674 10.0853 11.2277 10.0853ZM11.2277 8.0363C11.3473 8.0363 11.4642 8.00626 11.5636 7.94997C11.663 7.89369 11.7405 7.81368 11.7862 7.72008C11.832 7.62648 11.8439 7.52348 11.8206 7.42411C11.7973 7.32475 11.7397 7.23347 11.6552 7.16183C11.5706 7.09019 11.4629 7.0414 11.3457 7.02164C11.2284 7.00187 11.1069 7.01202 10.9964 7.05079C10.8859 7.08956 10.7915 7.15522 10.7251 7.23946C10.6587 7.3237 10.6232 7.42274 10.6232 7.52405C10.6232 7.65991 10.6869 7.7902 10.8003 7.88627C10.9137 7.98233 11.0674 8.0363 11.2277 8.0363ZM8.20521 8.0363C8.32477 8.0363 8.44164 8.00626 8.54105 7.94997C8.64046 7.89369 8.71794 7.81368 8.7637 7.72008C8.80945 7.62648 8.82142 7.52348 8.7981 7.42411C8.77477 7.32475 8.7172 7.23347 8.63266 7.16183C8.54812 7.09019 8.4404 7.0414 8.32314 7.02164C8.20588 7.00187 8.08433 7.01202 7.97387 7.05079C7.86341 7.08956 7.769 7.15522 7.70258 7.23946C7.63616 7.3237 7.6007 7.42274 7.6007 7.52405C7.6007 7.65991 7.66439 7.7902 7.77776 7.88627C7.89113 7.98233 8.04488 8.0363 8.20521 8.0363ZM12.4367 1.88925H11.8322V1.377C11.8322 1.24114 11.7686 1.11085 11.6552 1.01478C11.5418 0.918716 11.3881 0.864746 11.2277 0.864746C11.0674 0.864746 10.9137 0.918716 10.8003 1.01478C10.6869 1.11085 10.6232 1.24114 10.6232 1.377V1.88925H5.78719V1.377C5.78719 1.24114 5.7235 1.11085 5.61013 1.01478C5.49677 0.918716 5.34301 0.864746 5.18268 0.864746C5.02236 0.864746 4.8686 0.918716 4.75523 1.01478C4.64187 1.11085 4.57818 1.24114 4.57818 1.377V1.88925H3.97367C3.4927 1.88925 3.03142 2.05116 2.69132 2.33936C2.35122 2.62756 2.16016 3.01844 2.16016 3.42602V10.5976C2.16016 11.0051 2.35122 11.396 2.69132 11.6842C3.03142 11.9724 3.4927 12.1343 3.97367 12.1343H12.4367C12.9177 12.1343 13.379 11.9724 13.7191 11.6842C14.0592 11.396 14.2503 11.0051 14.2503 10.5976V3.42602C14.2503 3.01844 14.0592 2.62756 13.7191 2.33936C13.379 2.05116 12.9177 1.88925 12.4367 1.88925ZM13.0412 10.5976C13.0412 10.7334 12.9776 10.8637 12.8642 10.9598C12.7508 11.0559 12.5971 11.1098 12.4367 11.1098H3.97367C3.81335 11.1098 3.65959 11.0559 3.54622 10.9598C3.43286 10.8637 3.36917 10.7334 3.36917 10.5976V5.98729H13.0412V10.5976ZM13.0412 4.96278H3.36917V3.42602C3.36917 3.29016 3.43286 3.15986 3.54622 3.0638C3.65959 2.96773 3.81335 2.91376 3.97367 2.91376H4.57818V3.42602C4.57818 3.56187 4.64187 3.69217 4.75523 3.78823C4.8686 3.8843 5.02236 3.93827 5.18268 3.93827C5.34301 3.93827 5.49677 3.8843 5.61013 3.78823C5.7235 3.69217 5.78719 3.56187 5.78719 3.42602V2.91376H10.6232V3.42602C10.6232 3.56187 10.6869 3.69217 10.8003 3.78823C10.9137 3.8843 11.0674 3.93827 11.2277 3.93827C11.3881 3.93827 11.5418 3.8843 11.6552 3.78823C11.7686 3.69217 11.8322 3.56187 11.8322 3.42602V2.91376H12.4367C12.5971 2.91376 12.7508 2.96773 12.8642 3.0638C12.9776 3.15986 13.0412 3.29016 13.0412 3.42602V4.96278ZM5.18268 8.0363C5.30224 8.0363 5.41912 8.00626 5.51853 7.94997C5.61794 7.89369 5.69542 7.81368 5.74117 7.72008C5.78693 7.62648 5.7989 7.52348 5.77557 7.42411C5.75225 7.32475 5.69467 7.23347 5.61013 7.16183C5.52559 7.09019 5.41788 7.0414 5.30062 7.02164C5.18335 7.00187 5.06181 7.01202 4.95135 7.05079C4.84089 7.08956 4.74648 7.15522 4.68005 7.23946C4.61363 7.3237 4.57818 7.42274 4.57818 7.52405C4.57818 7.65991 4.64187 7.7902 4.75523 7.88627C4.8686 7.98233 5.02236 8.0363 5.18268 8.0363ZM5.18268 10.0853C5.30224 10.0853 5.41912 10.0553 5.51853 9.99899C5.61794 9.9427 5.69542 9.8627 5.74117 9.7691C5.78693 9.6755 5.7989 9.5725 5.77557 9.47313C5.75225 9.37376 5.69467 9.28249 5.61013 9.21085C5.52559 9.13921 5.41788 9.09042 5.30062 9.07065C5.18335 9.05089 5.06181 9.06103 4.95135 9.0998C4.84089 9.13858 4.74648 9.20423 4.68005 9.28847C4.61363 9.37271 4.57818 9.47175 4.57818 9.57307C4.57818 9.70892 4.64187 9.83922 4.75523 9.93528C4.8686 10.0314 5.02236 10.0853 5.18268 10.0853Z" fill="black"/>
</g>
<defs>
<clipPath id="clip0_77_2782">
<rect width="14.5081" height="12.2941" fill="white" transform="translate(0.949219 0.352539)"/>
</clipPath>
</defs>
</svg>
