<svg xmlns="http://www.w3.org/2000/svg" width="24" height="24" viewBox="0 0 24 24" fill="none">
    <path d="M3 4.25C3 4.05109 3.07902 3.86032 3.21967 3.71967C3.36032 3.57902 3.55109 3.5 3.75 3.5H4.308C5.258 3.5 5.828 4.139 6.153 4.733C6.37 5.129 6.527 5.588 6.65 6.004C6.68327 6.00137 6.71663 6.00004 6.75 6H19.248C20.078 6 20.678 6.794 20.45 7.593L18.622 14.002C18.4581 14.5769 18.1114 15.0827 17.6343 15.4428C17.1572 15.803 16.5758 15.9979 15.978 15.998H10.03C9.42749 15.998 8.84165 15.8002 8.36252 15.4349C7.8834 15.0696 7.5375 14.557 7.378 13.976L6.618 11.204L5.358 6.956L5.357 6.948C5.201 6.381 5.055 5.85 4.837 5.454C4.628 5.069 4.46 5 4.309 5H3.75C3.55109 5 3.36032 4.92098 3.21967 4.78033C3.07902 4.63968 3 4.44891 3 4.25ZM8.073 10.84L8.824 13.579C8.974 14.121 9.467 14.498 10.03 14.498H15.978C16.2497 14.498 16.514 14.4095 16.7309 14.2458C16.9478 14.0821 17.1054 13.8523 17.18 13.591L18.917 7.5H7.085L8.059 10.787L8.073 10.84Z" fill="black"/>
    <path d="M11 19C11 19.5304 10.7893 20.0391 10.4142 20.4142C10.0391 20.7893 9.53043 21 9 21C8.46957 21 7.96086 20.7893 7.58579 20.4142C7.21071 20.0391 7 19.5304 7 19C7 18.4696 7.21071 17.9609 7.58579 17.5858C7.96086 17.2107 8.46957 17 9 17C9.53043 17 10.0391 17.2107 10.4142 17.5858C10.7893 17.9609 11 18.4696 11 19ZM9.5 19C9.5 18.8674 9.44732 18.7402 9.35355 18.6464C9.25979 18.5527 9.13261 18.5 9 18.5C8.86739 18.5 8.74021 18.5527 8.64645 18.6464C8.55268 18.7402 8.5 18.8674 8.5 19C8.5 19.1326 8.55268 19.2598 8.64645 19.3536C8.74021 19.4473 8.86739 19.5 9 19.5C9.13261 19.5 9.25979 19.4473 9.35355 19.3536C9.44732 19.2598 9.5 19.1326 9.5 19Z" fill="black"/>
    <path d="M18 19C18 19.5304 17.7893 20.0391 17.4142 20.4142C17.0391 20.7893 16.5304 21 16 21C15.4696 21 14.9609 20.7893 14.5858 20.4142C14.2107 20.0391 14 19.5304 14 19C14 18.4696 14.2107 17.9609 14.5858 17.5858C14.9609 17.2107 15.4696 17 16 17C16.5304 17 17.0391 17.2107 17.4142 17.5858C17.7893 17.9609 18 18.4696 18 19ZM16.5 19C16.5 18.8674 16.4473 18.7402 16.3536 18.6464C16.2598 18.5527 16.1326 18.5 16 18.5C15.8674 18.5 15.7402 18.5527 15.6464 18.6464C15.5527 18.7402 15.5 18.8674 15.5 19C15.5 19.1326 15.5527 19.2598 15.6464 19.3536C15.7402 19.4473 15.8674 19.5 16 19.5C16.1326 19.5 16.2598 19.4473 16.3536 19.3536C16.4473 19.2598 16.5 19.1326 16.5 19Z" fill="black"/>
</svg>