<svg width="16" height="16" viewBox="0 0 16 16" fill="none" xmlns="http://www.w3.org/2000/svg">
<mask id="path-1-inside-1_216_16420" fill="white">
<path d="M14 1.00002C14.2652 1.00002 14.5196 1.10538 14.7071 1.29292C14.8946 1.48046 15 1.73482 15 2.00004V10.0002C15 10.2654 14.8946 10.5198 14.7071 10.7073C14.5196 10.8949 14.2652 11.0002 14 11.0002H11.5C11.1895 11.0002 10.8833 11.0725 10.6056 11.2114C10.3279 11.3502 10.0863 11.5519 9.9 11.8003L8 14.3333L6.1 11.8003C5.91371 11.5519 5.67214 11.3502 5.39443 11.2114C5.11672 11.0725 4.81049 11.0002 4.5 11.0002H2C1.73478 11.0002 1.48043 10.8949 1.29289 10.7073C1.10536 10.5198 1 10.2654 1 10.0002V2.00004C1 1.73482 1.10536 1.48046 1.29289 1.29292C1.48043 1.10538 1.73478 1.00002 2 1.00002H14ZM2 0C1.46957 0 0.960859 0.210718 0.585786 0.585799C0.210714 0.96088 0 1.4696 0 2.00004L0 10.0002C0 10.5307 0.210714 11.0394 0.585786 11.4145C0.960859 11.7895 1.46957 12.0003 2 12.0003H4.5C4.65525 12.0003 4.80836 12.0364 4.94721 12.1058C5.08607 12.1753 5.20685 12.2761 5.3 12.4003L7.2 14.9333C7.29315 15.0575 7.41393 15.1583 7.55279 15.2278C7.69164 15.2972 7.84475 15.3333 8 15.3333C8.15525 15.3333 8.30836 15.2972 8.44721 15.2278C8.58607 15.1583 8.70685 15.0575 8.8 14.9333L10.7 12.4003C10.7931 12.2761 10.9139 12.1753 11.0528 12.1058C11.1916 12.0364 11.3448 12.0003 11.5 12.0003H14C14.5304 12.0003 15.0391 11.7895 15.4142 11.4145C15.7893 11.0394 16 10.5307 16 10.0002V2.00004C16 1.4696 15.7893 0.96088 15.4142 0.585799C15.0391 0.210718 14.5304 0 14 0L2 0Z"/>
</mask>
<path d="M14 1.00002V-0.999978V1.00002ZM9.9 11.8003L11.4999 13.0003L11.5 13.0002L9.9 11.8003ZM8 14.3333L6.40006 15.5334L8 17.6664L9.59994 15.5334L8 14.3333ZM6.1 11.8003L4.49999 13.0002L4.50006 13.0003L6.1 11.8003ZM4.5 11.0002V9.00024V11.0002ZM1 10.0002L-1 10.0002L1 10.0002ZM2 1.00002L2 -0.999978L2 1.00002ZM2 0L2 -2L2 0ZM0 2.00004H-2H0ZM0 10.0002L-2 10.0002L0 10.0002ZM5.3 12.4003L3.69999 13.6003L3.70006 13.6004L5.3 12.4003ZM7.2 14.9333L8.80001 13.7333L8.79994 13.7332L7.2 14.9333ZM8.8 14.9333L7.20006 13.7332L7.19999 13.7333L8.8 14.9333ZM10.7 12.4003L12.2999 13.6004L12.3 13.6003L10.7 12.4003ZM14 3.00002C13.7348 3.00002 13.4804 2.89466 13.2929 2.70712L16.1213 -0.121277C15.5587 -0.683895 14.7957 -0.999978 14 -0.999978L14 3.00002ZM13.2929 2.70712C13.1053 2.51958 13 2.26524 13 2.00004H17C17 1.2044 16.6839 0.441339 16.1213 -0.121277L13.2929 2.70712ZM13 2.00004V10.0002H17V2.00004H13ZM13 10.0002C13 9.73502 13.1053 9.48068 13.2929 9.29314L16.1213 12.1215C16.6839 11.5589 17 10.7959 17 10.0002H13ZM13.2929 9.29314C13.4804 9.10561 13.7348 9.00024 14 9.00024V13.0002C14.7957 13.0002 15.5587 12.6842 16.1213 12.1215L13.2929 9.29314ZM14 9.00024H11.5V13.0002H14V9.00024ZM11.5 9.00024C10.879 9.00024 10.2666 9.14482 9.71113 9.42254L11.5 13.0002L11.5 13.0002V9.00024ZM9.71113 9.42254C9.15571 9.70026 8.67257 10.1035 8.29999 10.6003L11.5 13.0002L11.5 13.0002L9.71113 9.42254ZM8.30006 10.6002L6.40006 13.1332L9.59994 15.5334L11.4999 13.0003L8.30006 10.6002ZM9.59994 13.1332L7.69994 10.6002L4.50006 13.0003L6.40006 15.5334L9.59994 13.1332ZM7.70001 10.6003C7.32743 10.1035 6.8443 9.70026 6.28887 9.42254L4.49998 13.0002L4.49999 13.0002L7.70001 10.6003ZM6.28887 9.42254C5.73344 9.14482 5.12099 9.00024 4.5 9.00024L4.5 13.0002L4.49998 13.0002L6.28887 9.42254ZM4.5 9.00024H2V13.0002H4.5V9.00024ZM2 9.00024C2.26523 9.00024 2.51959 9.10561 2.70712 9.29314L-0.121336 12.1215C0.441269 12.6842 1.20434 13.0002 2 13.0002V9.00024ZM2.70712 9.29314C2.89465 9.48068 3 9.73502 3 10.0002L-1 10.0002C-1 10.7959 -0.68394 11.5589 -0.121336 12.1215L2.70712 9.29314ZM3 10.0002V2.00004H-1V10.0002H3ZM3 2.00004C3 2.26524 2.89465 2.51958 2.70712 2.70712L-0.121336 -0.121277C-0.68394 0.44134 -1 1.2044 -1 2.00004L3 2.00004ZM2.70712 2.70712C2.51959 2.89466 2.26523 3.00002 2 3.00002L2 -0.999978C1.20434 -0.999978 0.44127 -0.683895 -0.121336 -0.121277L2.70712 2.70712ZM2 3.00002H14V-0.999978H2V3.00002ZM2 -2C0.93912 -2 -0.0783005 -1.57856 -0.828443 -0.828399L2.00002 2L2 2L2 -2ZM-0.828443 -0.828399C-1.57858 -0.0782419 -2 0.93918 -2 2.00004L2 2.00004L2.00002 2L-0.828443 -0.828399ZM-2 2.00004L-2 10.0002H2L2 2.00004H-2ZM-2 10.0002C-2 11.0611 -1.57858 12.0785 -0.828443 12.8287L2.00002 10.0003L2 10.0002L-2 10.0002ZM-0.828443 12.8287C-0.0783011 13.5788 0.939119 14.0003 2 14.0003V10.0003L2.00002 10.0003L-0.828443 12.8287ZM2 14.0003H4.5V10.0003H2V14.0003ZM4.5 14.0003C4.34475 14.0003 4.19163 13.9641 4.05277 13.8947L5.84166 10.317C5.42509 10.1087 4.96574 10.0003 4.5 10.0003V14.0003ZM4.05277 13.8947C3.91392 13.8253 3.79313 13.7244 3.69999 13.6003L6.90001 11.2003C6.62057 10.8277 6.25822 10.5253 5.84166 10.317L4.05277 13.8947ZM3.70006 13.6004L5.60006 16.1334L8.79994 13.7332L6.89994 11.2002L3.70006 13.6004ZM5.59999 16.1333C5.87942 16.5059 6.24177 16.8083 6.65834 17.0166L8.44723 13.4389C8.58609 13.5083 8.70687 13.6092 8.80001 13.7333L5.59999 16.1333ZM6.65834 17.0166C7.07491 17.2249 7.53426 17.3333 8 17.3333V13.3333C8.15525 13.3333 8.30837 13.3695 8.44723 13.4389L6.65834 17.0166ZM8 17.3333C8.46574 17.3333 8.92509 17.2249 9.34166 17.0166L7.55277 13.4389C7.69163 13.3695 7.84475 13.3333 8 13.3333V17.3333ZM9.34166 17.0166C9.75823 16.8083 10.1206 16.5059 10.4 16.1333L7.19999 13.7333C7.29313 13.6091 7.41391 13.5083 7.55277 13.4389L9.34166 17.0166ZM10.3999 16.1334L12.2999 13.6004L9.10006 11.2002L7.20006 13.7332L10.3999 16.1334ZM12.3 13.6003C12.2069 13.7245 12.0861 13.8253 11.9472 13.8947L10.1583 10.317C9.74178 10.5253 9.37943 10.8277 9.09999 11.2003L12.3 13.6003ZM11.9472 13.8947C11.8084 13.9641 11.6553 14.0003 11.5 14.0003V10.0003C11.0343 10.0003 10.5749 10.1087 10.1583 10.317L11.9472 13.8947ZM11.5 14.0003H14V10.0003H11.5V14.0003ZM14 14.0003C15.0609 14.0003 16.0783 13.5788 16.8284 12.8287L14 10.0003L14 10.0003V14.0003ZM16.8284 12.8287C17.5786 12.0785 18 11.0611 18 10.0002H14L14 10.0003L16.8284 12.8287ZM18 10.0002V2.00004H14V10.0002H18ZM18 2.00004C18 0.939179 17.5786 -0.0782426 16.8284 -0.828399L14 2L14 2.00004H18ZM16.8284 -0.828399C16.0783 -1.57856 15.0609 -2 14 -2L14 2L14 2L16.8284 -0.828399ZM14 -2H2V2H14V-2Z" fill="white" mask="url(#path-1-inside-1_216_16420)"/>
</svg>
