<svg width="20" height="20" viewBox="0 0 20 20" fill="" xmlns="http://www.w3.org/2000/svg">
 <path d="M7.17008 15.0328L7.17008 15.0328L9.07008 17.676C9.07008 17.676 9.07008 17.676 9.07008 17.676C9.17753 17.8255 9.31732 17.9474 9.47877 18.0317C9.64027 18.1159 9.81875 18.16 10 18.16C10.1813 18.16 10.3597 18.1159 10.5212 18.0317C10.6827 17.9474 10.8225 17.8255 10.9299 17.676L12.8299 15.0328L12.8299 15.0328C12.9088 14.9231 13.0105 14.8347 13.1268 14.774C13.243 14.7134 13.3708 14.682 13.5 14.682H16C16.5751 14.682 17.1252 14.4435 17.5297 14.0214C17.934 13.5996 18.16 13.0288 18.16 12.435V4.087C18.16 3.49321 17.934 2.92243 17.5297 2.50057C17.1252 2.07847 16.5751 1.84 16 1.84H4C3.42488 1.84 2.87477 2.07847 2.47027 2.50057C2.06599 2.92243 1.84 3.49321 1.84 4.087V12.435C1.84 13.0288 2.06599 13.5996 2.47027 14.0214C2.87477 14.4435 3.42488 14.682 4 14.682H6.5C6.62924 14.682 6.75698 14.7134 6.8732 14.774C6.98946 14.8347 7.09124 14.9231 7.17008 15.0328ZM16 3.2035C16.2205 3.2035 16.4335 3.29485 16.5916 3.45984C16.7499 3.62506 16.84 3.85054 16.84 4.087V12.435C16.84 12.6715 16.7499 12.897 16.5916 13.0622C16.4335 13.2272 16.2205 13.3185 16 13.3185H13.5C13.1635 13.3185 12.8319 13.4003 12.5316 13.557C12.2312 13.7137 11.9707 13.9408 11.7701 14.2199L10 16.6824L8.22992 14.2199C8.22992 14.2199 8.22992 14.2199 8.22992 14.2199C8.02932 13.9408 7.76875 13.7137 7.46844 13.557C7.16809 13.4003 6.8365 13.3185 6.5 13.3185H4C3.77947 13.3185 3.56652 13.2272 3.40841 13.0622C3.25008 12.897 3.16 12.6715 3.16 12.435V4.087C3.16 3.85054 3.25008 3.62506 3.40841 3.45984C3.56652 3.29485 3.77947 3.2035 4 3.2035H16Z" fill="" stroke="white" stroke-width="0.32" />
</svg>