<svg width="11" height="11" viewBox="0 0 11 11" fill="none" xmlns="http://www.w3.org/2000/svg">
<path d="M3.65032 11C3.74212 11.0002 3.83291 10.9838 3.91663 10.9519C4.00035 10.92 4.07509 10.8734 4.13586 10.8152L9.33581 5.86506C9.44157 5.76446 9.5 5.6345 9.5 5.49985C9.5 5.3652 9.44157 5.23524 9.33581 5.13464L4.13586 0.184504C4.07918 0.130549 4.0105 0.0865685 3.93374 0.055074C3.85697 0.0235796 3.77363 0.00518774 3.68847 0.000948632C3.6033 -0.00329048 3.51798 0.00670615 3.43738 0.0303678C3.35679 0.0540294 3.28248 0.0908925 3.21872 0.138853C3.15496 0.186813 3.10298 0.24493 3.06576 0.309887C3.02855 0.374844 3.00681 0.445369 3.0018 0.517434C2.99679 0.589498 3.00861 0.661693 3.03657 0.729894C3.06453 0.798096 3.10809 0.860969 3.16477 0.914924L7.98122 5.49985L3.16477 10.0848C3.08132 10.1639 3.02674 10.2618 3.00761 10.3667C2.98848 10.4715 3.00561 10.5788 3.05695 10.6756C3.10829 10.7723 3.19164 10.8545 3.29693 10.912C3.40222 10.9696 3.52496 11.0002 3.65032 11Z" fill="black"/>
</svg>
