<svg width="7" height="11" viewBox="0 0 7 11" fill="none" xmlns="http://www.w3.org/2000/svg">
<path d="M6.34968 11C6.25788 11.0002 6.16709 10.9838 6.08337 10.9519C5.99965 10.92 5.92491 10.8734 5.86414 10.8152L0.664192 5.86506C0.558428 5.76446 0.5 5.6345 0.5 5.49985C0.5 5.3652 0.558428 5.23524 0.664192 5.13464L5.86414 0.184504C5.92082 0.130549 5.9895 0.0865685 6.06626 0.055074C6.14303 0.0235796 6.22637 0.00518774 6.31153 0.000948632C6.3967 -0.00329048 6.48202 0.00670615 6.56262 0.0303678C6.64321 0.0540294 6.71752 0.0908925 6.78128 0.138853C6.84504 0.186813 6.89702 0.24493 6.93424 0.309887C6.97145 0.374844 6.99319 0.445369 6.9982 0.517434C7.00321 0.589498 6.9914 0.661693 6.96343 0.729894C6.93547 0.798096 6.89191 0.860969 6.83523 0.914924L2.01878 5.49985L6.83523 10.0848C6.91868 10.1639 6.97326 10.2618 6.99239 10.3667C7.01152 10.4715 6.99439 10.5788 6.94305 10.6756C6.89171 10.7723 6.80836 10.8545 6.70307 10.912C6.59778 10.9696 6.47504 11.0002 6.34968 11" fill="black"/>
</svg>
