<svg width="25" height="25" viewBox="0 0 25 25" fill="none" xmlns="http://www.w3.org/2000/svg">
<path d="M14.2673 12.5001L22.1336 4.63381C22.3679 4.39942 22.4996 4.08153 22.4996 3.75006C22.4996 3.41858 22.3679 3.10069 22.1336 2.86631C21.8992 2.63192 21.5813 2.50024 21.2498 2.50024C20.9183 2.50024 20.6004 2.63192 20.3661 2.86631L12.4998 10.7326L4.63356 2.86631C4.51751 2.75025 4.37973 2.65819 4.22809 2.59538C4.07646 2.53257 3.91394 2.50024 3.74981 2.50024C3.58568 2.50024 3.42316 2.53257 3.27153 2.59538C3.1199 2.65819 2.98212 2.75025 2.86606 2.86631C2.63168 3.10069 2.5 3.41858 2.5 3.75006C2.5 4.08153 2.63168 4.39942 2.86606 4.63381L10.7323 12.5001L2.86606 20.3663C2.63168 20.6007 2.5 20.9186 2.5 21.2501C2.5 21.5815 2.63168 21.8994 2.86606 22.1338C3.10045 22.3682 3.41834 22.4999 3.74981 22.4999C4.08128 22.4999 4.39918 22.3682 4.63356 22.1338L12.4998 14.2676L20.3661 22.1338C20.4819 22.2503 20.6196 22.3427 20.7712 22.4058C20.9229 22.4689 21.0856 22.5014 21.2498 22.5014C21.4141 22.5014 21.5767 22.4689 21.7284 22.4058C21.88 22.3427 22.0177 22.2503 22.1336 22.1338C22.2497 22.0178 22.3419 21.8801 22.4048 21.7284C22.4677 21.5768 22.5001 21.4142 22.5001 21.2501C22.5001 21.0859 22.4677 20.9233 22.4048 20.7717C22.3419 20.62 22.2497 20.4823 22.1336 20.3663L14.2673 12.5001Z" fill="#202223"/>
</svg>
