<svg width="46" height="29" viewBox="0 0 46 29" fill="none" xmlns="http://www.w3.org/2000/svg">
<rect width="46" height="29" fill="white"/>
<g clip-path="url(#clip0_22_10319)">
<path d="M24.1203 11.0298C22.2467 11.0298 20.7266 12.5547 20.7266 14.4367C20.7266 16.4378 22.1807 17.9335 24.1203 17.9335C26.0116 17.9335 27.5048 16.4179 27.5048 14.4761C27.5048 12.5457 26.0216 11.0298 24.1203 11.0298V11.0298Z" fill="url(#paint0_linear_22_10319)"/>
<path d="M4.8557 11.1539H3.03125V17.7839H4.84617C5.80914 17.7839 6.50555 17.5462 7.11648 17.0189C7.84133 16.3926 8.27117 15.4482 8.27117 14.4721C8.27117 12.5147 6.86766 11.1539 4.8557 11.1539V11.1539ZM6.30664 16.1334C5.91437 16.5022 5.4093 16.6615 4.60664 16.6615H4.2732V12.2766H4.60664C5.4093 12.2766 5.895 12.4259 6.30664 12.8132C6.73594 13.2109 6.99195 13.8267 6.99195 14.4626C6.99195 15.1 6.73594 15.7373 6.30664 16.1334ZM8.84414 17.7839H10.0841V11.1539H8.8443V17.7839H8.84414ZM13.1198 13.6971C12.3745 13.4095 12.1552 13.2197 12.1552 12.8631C12.1552 12.4453 12.5457 12.1274 13.0809 12.1274C13.453 12.1274 13.7584 12.2864 14.0837 12.663L14.7318 11.7796C14.1974 11.2915 13.5583 11.0433 12.861 11.0433C11.7362 11.0433 10.8767 11.8589 10.8767 12.9414C10.8767 13.8568 11.2772 14.3236 12.4417 14.7622C12.9286 14.9402 13.1761 15.0589 13.3005 15.1401C13.5485 15.3091 13.6731 15.5469 13.6731 15.825C13.6731 16.3627 13.2624 16.7598 12.7082 16.7598C12.1165 16.7598 11.6399 16.4519 11.3535 15.8754L10.5529 16.6816C11.1243 17.5552 11.8115 17.9442 12.7571 17.9442C14.0452 17.9442 14.9512 17.0482 14.9512 15.7662C14.9512 14.7122 14.5324 14.2347 13.1198 13.6971V13.6971ZM15.3423 14.4722C15.3423 16.4228 16.8123 17.9335 18.7021 17.9335C19.2364 17.9335 19.6944 17.8235 20.258 17.5461V16.0243C19.7611 16.5418 19.322 16.75 18.7587 16.75C17.5091 16.75 16.621 15.8053 16.621 14.4626C16.621 13.1908 17.5368 12.1865 18.7021 12.1865C19.2928 12.1865 19.742 12.405 20.258 12.9319V11.4102C19.7141 11.1229 19.2648 11.0044 18.7305 11.0044C16.8502 11.0044 15.3423 12.5456 15.3423 14.4722V14.4722ZM30.3151 15.6075L28.6164 11.1539H27.2612L29.9628 17.9533H30.6302L33.3789 11.1538H32.0338L30.3151 15.6074V15.6075ZM33.9432 17.784H37.4639V16.6615H35.1835V14.8708H37.3766V13.7482H35.1835V12.2765H37.4639V11.154H33.9431V17.784H33.9432ZM42.3771 13.1106C42.3771 11.8686 41.5576 11.1539 40.1253 11.1539H38.2834V17.7839H39.5252V15.1193H39.6877L41.4044 17.7839H42.9313L40.9261 14.9912C41.8627 14.7916 42.3771 14.1253 42.3771 13.1106V13.1106ZM39.8863 14.2055H39.5252V12.1965H39.9062C40.6808 12.1965 41.1005 12.5355 41.1005 13.1807C41.1005 13.8463 40.6808 14.2055 39.8863 14.2055V14.2055Z" fill="#0B1015"/>
</g>
<defs>
<linearGradient id="paint0_linear_22_10319" x1="22.0425" y1="11.6555" x2="26.821" y2="16.4996" gradientUnits="userSpaceOnUse">
<stop stop-color="#F34F26"/>
<stop offset="1" stop-color="#F69E35"/>
</linearGradient>
<clipPath id="clip0_22_10319">
<rect width="40" height="7" fill="white" transform="translate(3 11)"/>
</clipPath>
</defs>
</svg>
