<svg xmlns="http://www.w3.org/2000/svg" width="16" height="16" viewBox="0 0 16 16" fill="none">
  <path d="M12.6667 2.66663H3.33333C2.8029 2.66663 2.29419 2.87734 1.91911 3.25241C1.54404 3.62749 1.33333 4.13619 1.33333 4.66663V11.3333C1.33333 11.8637 1.54404 12.3724 1.91911 12.7475C2.29419 13.1226 2.8029 13.3333 3.33333 13.3333H12.6667C13.1971 13.3333 13.7058 13.1226 14.0809 12.7475C14.4559 12.3724 14.6667 11.8637 14.6667 11.3333V4.66663C14.6667 4.13619 14.4559 3.62749 14.0809 3.25241C13.7058 2.87734 13.1971 2.66663 12.6667 2.66663ZM3.33333 3.99996H12.6667C12.8435 3.99996 13.013 4.0702 13.1381 4.19522C13.2631 4.32025 13.3333 4.48981 13.3333 4.66663L8 7.91996L2.66666 4.66663C2.66666 4.48981 2.7369 4.32025 2.86192 4.19522C2.98695 4.0702 3.15652 3.99996 3.33333 3.99996ZM13.3333 11.3333C13.3333 11.5101 13.2631 11.6797 13.1381 11.8047C13.013 11.9297 12.8435 12 12.6667 12H3.33333C3.15652 12 2.98695 11.9297 2.86192 11.8047C2.7369 11.6797 2.66666 11.5101 2.66666 11.3333V6.18663L7.65333 9.23329C7.75467 9.2918 7.86964 9.32261 7.98666 9.32261C8.10369 9.32261 8.21865 9.2918 8.31999 9.23329L13.3333 6.18663V11.3333Z" fill="#fff" />
</svg>