<svg width="24" height="24" viewBox="0 0 24 24" fill="none" xmlns="http://www.w3.org/2000/svg">
<g clip-path="url(#clip0_2033_16463)">
<path d="M15.6158 9.62667H12.0179V6.02608C12.0179 5.70776 11.8916 5.40249 11.6667 5.17741C11.4418 4.95233 11.1367 4.82588 10.8186 4.82588C10.5006 4.82588 10.1955 4.95233 9.97063 5.17741C9.74572 5.40249 9.61936 5.70776 9.61936 6.02608V9.62667H6.0215C5.70343 9.62667 5.39839 9.75312 5.17348 9.9782C4.94857 10.2033 4.82221 10.5086 4.82221 10.8269C4.82221 11.1452 4.94857 11.4505 5.17348 11.6755C5.39839 11.9006 5.70343 12.0271 6.0215 12.0271H9.61936V15.6277C9.61936 15.946 9.74572 16.2512 9.97063 16.4763C10.1955 16.7014 10.5006 16.8279 10.8186 16.8279C11.1367 16.8279 11.4418 16.7014 11.6667 16.4763C11.8916 16.2512 12.0179 15.946 12.0179 15.6277V12.0271H15.6158C15.9339 12.0271 16.2389 11.9006 16.4638 11.6755C16.6887 11.4505 16.8151 11.1452 16.8151 10.8269C16.8151 10.5086 16.6887 10.2033 16.4638 9.9782C16.2389 9.75312 15.9339 9.62667 15.6158 9.62667ZM23.663 21.9767L19.2137 17.56C20.9408 15.4049 21.7771 12.6695 21.5508 9.91628C21.3245 7.16303 20.0528 4.60118 17.997 2.75751C15.9412 0.913839 13.2578 -0.0715191 10.4983 0.00404582C7.73893 0.0796108 5.11331 1.21035 3.16137 3.16377C1.20944 5.11719 0.0795504 7.74481 0.00404275 10.5063C-0.0714649 13.2678 0.913145 15.9534 2.75542 18.0107C4.59769 20.068 7.15759 21.3407 9.90875 21.5672C12.6599 21.7937 15.3932 20.9567 17.5467 19.2283L21.96 23.645C22.0715 23.7575 22.2042 23.8468 22.3503 23.9077C22.4964 23.9686 22.6532 24 22.8115 24C22.9698 24 23.1266 23.9686 23.2727 23.9077C23.4189 23.8468 23.5515 23.7575 23.663 23.645C23.8792 23.4212 24 23.1221 24 22.8108C24 22.4996 23.8792 22.2005 23.663 21.9767V21.9767ZM10.8186 19.2283C9.15827 19.2283 7.53518 18.7355 6.15463 17.8124C4.77408 16.8892 3.69807 15.5771 3.06267 14.0419C2.42727 12.5068 2.26102 10.8175 2.58495 9.18784C2.90887 7.55813 3.70842 6.06115 4.88248 4.88619C6.05654 3.71124 7.55239 2.91108 9.18086 2.58691C10.8093 2.26274 12.4973 2.42912 14.0313 3.065C15.5653 3.70088 16.8764 4.77771 17.7988 6.15931C18.7213 7.54091 19.2137 9.16523 19.2137 10.8269C19.2137 13.0551 18.3292 15.192 16.7548 16.7675C15.1804 18.3431 13.0451 19.2283 10.8186 19.2283V19.2283Z" fill="black"/>
</g>
<defs>
<clipPath id="clip0_2033_16463">
<rect width="24" height="24" fill="white"/>
</clipPath>
</defs>
</svg>
