<svg xmlns="http://www.w3.org/2000/svg" width="19" height="20" viewBox="0 0 19 20" fill="none">
    <path d="M15.9301 4.45172C15.1014 3.62285 14.0028 3.1189 12.8341 3.03153C11.6653 2.94416 10.504 3.27917 9.56131 3.97563C8.56826 3.237 7.33223 2.90207 6.10213 3.03829C4.87202 3.1745 3.73921 3.77174 2.93183 4.70974C2.12444 5.64774 1.70244 6.85681 1.75081 8.09349C1.79919 9.33017 2.31434 10.5026 3.19253 11.3746L9.00716 17.1893C9.07972 17.2624 9.16604 17.3205 9.26115 17.3601C9.35626 17.3997 9.45828 17.4201 9.56131 17.4201C9.66434 17.4201 9.76636 17.3997 9.86147 17.3601C9.95658 17.3205 10.0429 17.2624 10.1155 17.1893L15.9301 11.3746C16.3848 10.9202 16.7456 10.3806 16.9917 9.78664C17.2378 9.19271 17.3645 8.5561 17.3645 7.91319C17.3645 7.27027 17.2378 6.63366 16.9917 6.03973C16.7456 5.4458 16.3848 4.90618 15.9301 4.45172ZM14.8296 10.2742L9.56131 15.5346L4.29302 10.2742C3.82876 9.80798 3.51251 9.21508 3.38393 8.56984C3.25535 7.92461 3.32016 7.25577 3.57025 6.64723C3.82033 6.03869 4.24455 5.51755 4.78968 5.14918C5.33481 4.78082 5.97658 4.58163 6.63448 4.5766C7.5134 4.57875 8.35553 4.92964 8.97594 5.55221C9.0485 5.62536 9.13482 5.68343 9.22993 5.72305C9.32504 5.76268 9.42706 5.78308 9.53009 5.78308C9.63312 5.78308 9.73514 5.76268 9.83025 5.72305C9.92536 5.68343 10.0117 5.62536 10.0842 5.55221C10.7229 4.99875 11.548 4.70862 12.3926 4.74052C13.2371 4.77243 14.038 5.12399 14.6331 5.72407C15.2282 6.32414 15.5731 7.12789 15.598 7.97265C15.6229 8.81741 15.3259 9.64008 14.7672 10.2742H14.8296Z" fill="black"/>
</svg>