<svg width="20" height="23" viewBox="0 0 20 23" fill="none" xmlns="http://www.w3.org/2000/svg">
<path d="M4.86914 4.27469C6.22993 2.74659 8.07554 1.88812 9.99998 1.88812C11.9244 1.88812 13.77 2.74659 15.1308 4.27469C16.4916 5.80278 17.2561 7.87531 17.2561 10.0364C17.2561 12.1974 16.4916 14.2699 15.1308 15.798L14.1416 16.8967C13.4125 17.6996 12.4666 18.7327 11.3033 19.996C10.9537 20.3756 10.4863 20.5879 9.99998 20.5879C9.51362 20.5879 9.04629 20.3756 8.69664 19.996L5.78748 16.818C5.42164 16.4147 5.11581 16.075 4.86914 15.798C4.19532 15.0414 3.66081 14.1432 3.29614 13.1546C2.93147 12.166 2.74377 11.1064 2.74377 10.0364C2.74377 8.96631 2.93147 7.90673 3.29614 6.91814C3.66081 5.92955 4.19532 5.0313 4.86914 4.27469ZM14.2466 5.26663C13.1201 4.00186 11.5924 3.29142 9.99939 3.2916C8.40642 3.29177 6.87876 4.00255 5.75248 5.26756C4.62619 6.53257 3.99354 8.2482 3.99369 10.037C3.99385 11.8258 4.6268 13.5413 5.75331 14.8061L6.99164 16.1798C7.84704 17.1184 8.70482 18.0542 9.56498 18.9872C9.68154 19.1139 9.83737 19.1847 9.99956 19.1847C10.1617 19.1847 10.3176 19.1139 10.4341 18.9872L13.2625 15.8991C13.6541 15.4677 13.9816 15.1037 14.2458 14.8061C15.3721 13.5413 16.0048 11.8259 16.0048 10.0373C16.0048 8.24866 15.3721 6.53328 14.2458 5.2685L14.2466 5.26663ZM9.99998 7.48539C10.3285 7.48539 10.6538 7.55805 10.9573 7.69923C11.2608 7.84041 11.5366 8.04734 11.7689 8.3082C12.0012 8.56906 12.1855 8.87875 12.3112 9.21959C12.4369 9.56042 12.5016 9.92572 12.5016 10.2946C12.5016 10.6636 12.4369 11.0289 12.3112 11.3697C12.1855 11.7105 12.0012 12.0202 11.7689 12.2811C11.5366 12.5419 11.2608 12.7489 10.9573 12.89C10.6538 13.0312 10.3285 13.1039 9.99998 13.1039C9.34451 13.0905 8.71993 12.7886 8.26062 12.2633C7.80131 11.738 7.54397 11.0313 7.54397 10.2951C7.54397 9.55893 7.80131 8.85216 8.26062 8.32688C8.71993 7.80159 9.34451 7.49976 9.99998 7.48633V7.48539ZM9.99998 8.88908C9.83561 8.88908 9.67284 8.92543 9.52098 8.99607C9.36913 9.06671 9.23114 9.17024 9.11491 9.30076C8.99869 9.43128 8.90649 9.58622 8.84359 9.75675C8.78069 9.92728 8.74831 10.1101 8.74831 10.2946C8.74831 10.4792 8.78069 10.662 8.84359 10.8325C8.90649 11.0031 8.99869 11.158 9.11491 11.2885C9.23114 11.419 9.36913 11.5226 9.52098 11.5932C9.67284 11.6638 9.83561 11.7002 9.99998 11.7002C10.3318 11.7002 10.6501 11.5522 10.8847 11.2887C11.1194 11.0252 11.2512 10.6678 11.2512 10.2951C11.2512 9.92245 11.1194 9.56506 10.8847 9.30156C10.6501 9.03805 10.3318 8.89001 9.99998 8.89001V8.88908Z" fill="white"/>
</svg>
