<svg width="40" height="40" viewBox="0 0 40 40" fill="none" xmlns="http://www.w3.org/2000/svg">
<g clip-path="url(#clip0_25_94)">
<path d="M16.4862 30.1736C17.7629 28.9835 17.9594 27.1195 16.9253 26.0101C15.8912 24.9007 14.0179 24.9661 12.7413 26.1562C11.4646 27.3463 11.268 29.2104 12.3022 30.3197C13.3363 31.4291 15.2096 31.3637 16.4862 30.1736Z" fill="white"/>
<path d="M33.3768 30.1748C34.6535 28.9848 34.8501 27.1207 33.8159 26.0113C32.7818 24.9019 30.9085 24.9674 29.6319 26.1574C28.3552 27.3475 28.1587 29.2116 29.1928 30.3209C30.2269 31.4303 32.1002 31.3649 33.3768 30.1748Z" fill="white"/>
<path d="M3.08984 15.6082C3.08984 14.8714 2.4926 14.2742 1.75586 14.2742C1.01912 14.2742 0.421875 14.8714 0.421875 15.6082C0.421875 16.3449 1.01912 16.9421 1.75586 16.9421C2.4926 16.9421 3.08984 16.3449 3.08984 15.6082Z" fill="white"/>
<path d="M27.068 27.8859C27.5422 25.5421 29.7563 23.6796 32.1359 23.6796C34.4273 23.6796 36.0789 25.407 36.0336 27.6281C38.5117 27.6929 39.2016 24.4296 39.2016 24.4296C39.4102 23.5171 39.7219 21.7382 39.9828 19.9921C40.0683 19.453 40.0026 18.9008 39.793 18.3968C39.1452 16.8846 38.3623 15.434 37.4539 14.0625C36.5945 12.7804 35.1531 12.021 33.5078 11.9937C32.5266 11.9781 31.5633 11.9687 30.8359 11.9687L30.8297 11.9625C30.7359 10.3937 29.5922 9.19214 27.9867 9.04839C26.9422 8.95542 22.8047 8.88745 20.8187 8.88745C20.0297 8.88745 18.8977 8.89839 17.7523 8.91714V8.91245H17.743H3.97266C3.79739 8.91235 3.62383 8.94679 3.46189 9.01381C3.29995 9.08084 3.15281 9.17912 3.02888 9.30305C2.90495 9.42698 2.80667 9.57412 2.73965 9.73606C2.67262 9.898 2.63818 10.0716 2.63828 10.2468V10.2531C2.63828 10.6053 2.77821 10.9431 3.02728 11.1922C3.27635 11.4413 3.61417 11.5812 3.96641 11.5812H6.74219C7.07643 11.6058 7.38899 11.7559 7.6172 12.0014C7.84541 12.2468 7.97238 12.5695 7.97266 12.9046V12.9117C7.97317 13.0871 7.93909 13.2609 7.87235 13.4232C7.80562 13.5854 7.70756 13.7329 7.58376 13.8572C7.45997 13.9815 7.31288 14.0802 7.15091 14.1476C6.98894 14.215 6.81527 14.2497 6.63984 14.25H5.21641C4.86271 14.25 4.52351 14.3905 4.27341 14.6406C4.02332 14.8906 3.88281 15.2299 3.88281 15.5835C3.88271 15.7587 3.91713 15.9322 3.9841 16.0941C4.05108 16.256 4.14929 16.4031 4.27314 16.527C4.39698 16.651 4.54403 16.7493 4.70588 16.8163C4.86773 16.8834 5.04121 16.9179 5.21641 16.9179H6.63984C6.99374 16.9179 7.33315 17.0585 7.58339 17.3087C7.83363 17.559 7.97422 17.8984 7.97422 18.2523C7.97422 18.6062 7.83363 18.9456 7.58339 19.1958C7.33315 19.4461 6.99374 19.5867 6.63984 19.5867H1.31484C0.961081 19.5867 0.621796 19.7271 0.371574 19.9772C0.121353 20.2273 -0.0193241 20.5665 -0.0195312 20.9203C-0.0195312 21.2742 0.121054 21.6136 0.371298 21.8638C0.621542 22.1141 0.960945 22.2546 1.31484 22.2546H6.63984C6.99374 22.2546 7.33315 22.3952 7.58339 22.6455C7.83363 22.8957 7.97422 23.2351 7.97422 23.589C7.9738 23.9426 7.83304 24.2816 7.58284 24.5315C7.33264 24.7815 6.99347 24.9218 6.63984 24.9218H4.99297C4.63928 24.9218 4.30007 25.0623 4.04998 25.3124C3.79988 25.5625 3.65937 25.9017 3.65937 26.2554C3.65937 26.6092 3.79985 26.9485 4.04993 27.1987C4.3 27.4489 4.63921 27.5896 4.99297 27.5898L10.2477 27.5859L10.6844 26.4976C11.5789 24.8476 13.3586 23.6789 15.243 23.6789C17.6234 23.6789 19.3141 25.5429 19.1281 27.8882H27.0672M13.8328 14.871H12.0422C12.0405 14.8712 12.0389 14.8719 12.0376 14.873C12.0364 14.8741 12.0355 14.8756 12.0352 14.8773L11.8703 16.0492C11.8701 16.0501 11.87 16.0511 11.8703 16.052C11.8705 16.053 11.8709 16.0539 11.8715 16.0546C11.8721 16.0554 11.8729 16.056 11.8737 16.0564C11.8746 16.0568 11.8756 16.057 11.8766 16.057H13.2094C13.2748 16.0551 13.3398 16.0679 13.3997 16.0943C13.4595 16.1208 13.5127 16.1603 13.5554 16.2099C13.5981 16.2595 13.6291 16.3181 13.6463 16.3812C13.6635 16.4444 13.6663 16.5106 13.6547 16.575C13.6319 16.7165 13.5604 16.8457 13.4526 16.9402C13.3448 17.0348 13.2074 17.0888 13.0641 17.0929H11.7297C11.7281 17.0929 11.7265 17.0934 11.7252 17.0944C11.7239 17.0954 11.723 17.0968 11.7227 17.0984L11.4836 18.8007C11.4608 18.9423 11.3893 19.0715 11.2815 19.166C11.1737 19.2605 11.0363 19.3145 10.893 19.3187C10.8276 19.3206 10.7626 19.3078 10.7027 19.2814C10.6429 19.2549 10.5897 19.2154 10.5471 19.1658C10.5045 19.1161 10.4736 19.0576 10.4565 18.9944C10.4394 18.9313 10.4367 18.8651 10.4484 18.8007L11.0688 14.3851C11.0933 14.2356 11.1691 14.0993 11.2831 13.9995C11.3972 13.8998 11.5423 13.8427 11.6938 13.8382H13.9773C14.0427 13.8363 14.1077 13.8491 14.1676 13.8756C14.2274 13.902 14.2806 13.9415 14.3232 13.9912C14.3658 14.0408 14.3968 14.0994 14.4138 14.1625C14.4309 14.2257 14.4337 14.2918 14.4219 14.3562C14.3987 14.4971 14.3273 14.6255 14.2198 14.7194C14.1123 14.8133 13.9755 14.867 13.8328 14.871ZM18.6188 14.1898C18.8048 14.3548 18.9357 14.573 18.9938 14.8148C19.0587 15.0887 19.0693 15.3727 19.025 15.6507C18.9707 16.0833 18.7937 16.4913 18.5148 16.8265C18.3446 17.0278 18.1283 17.1851 17.8844 17.2851C17.8833 17.2863 17.8827 17.2878 17.8827 17.2894C17.8827 17.291 17.8833 17.2925 17.8844 17.2937L18.3281 18.5742C18.4477 18.9179 18.1406 19.3187 17.7586 19.3187H17.7336C17.6409 19.3214 17.5498 19.2946 17.4734 19.242C17.3969 19.1895 17.3392 19.114 17.3086 19.0265L16.7719 17.464C16.7711 17.4628 16.7701 17.4619 16.7688 17.4612C16.7676 17.4605 16.7662 17.4601 16.7648 17.4601H15.6242C15.6226 17.4602 15.6211 17.4608 15.6198 17.4617C15.6186 17.4627 15.6177 17.4641 15.6172 17.4656L15.4297 18.8C15.4068 18.9415 15.3354 19.0707 15.2276 19.1652C15.1198 19.2598 14.9824 19.3138 14.8391 19.3179C14.7737 19.3198 14.7087 19.3071 14.6488 19.2806C14.589 19.2541 14.5358 19.2146 14.4932 19.165C14.4506 19.1153 14.4196 19.0568 14.4026 18.9936C14.3855 18.9305 14.3827 18.8643 14.3945 18.8L15.0148 14.3843C15.0394 14.2348 15.1152 14.0985 15.2292 13.9988C15.3433 13.899 15.4884 13.842 15.6398 13.8375H17.4055C17.4055 13.8375 18.1805 13.8132 18.6188 14.1898ZM23.4781 14.3195C23.4569 14.4517 23.3902 14.5724 23.2895 14.6607C23.1888 14.7489 23.0604 14.7993 22.9266 14.8031H20.8727C20.8711 14.8032 20.8695 14.8037 20.8683 14.8047C20.867 14.8057 20.8661 14.807 20.8656 14.8085L20.7023 15.9679C20.7021 15.9689 20.7021 15.9698 20.7023 15.9708C20.7025 15.9717 20.7029 15.9726 20.7035 15.9734C20.7041 15.9741 20.7049 15.9748 20.7058 15.9752C20.7067 15.9756 20.7076 15.9758 20.7086 15.9757H22.3039C22.365 15.9739 22.4257 15.9858 22.4816 16.0105C22.5376 16.0352 22.5873 16.072 22.6271 16.1184C22.6669 16.1647 22.6959 16.2194 22.7119 16.2784C22.7279 16.3374 22.7305 16.3992 22.7195 16.4593C22.6983 16.5915 22.6316 16.7122 22.5309 16.8005C22.4302 16.8888 22.3018 16.9392 22.168 16.9429H20.5719C20.5703 16.943 20.5688 16.9436 20.5675 16.9446C20.5662 16.9455 20.5653 16.9469 20.5648 16.9484L20.3687 18.3437C20.3687 18.3456 20.3695 18.3475 20.3708 18.349C20.3721 18.3504 20.3738 18.3513 20.3758 18.3515H22.4281C22.4892 18.3497 22.5499 18.3616 22.6059 18.3863C22.6618 18.4109 22.7115 18.4478 22.7513 18.4942C22.7912 18.5405 22.8201 18.5952 22.8361 18.6542C22.8521 18.7132 22.8547 18.775 22.8438 18.8351C22.8225 18.9673 22.7558 19.088 22.6551 19.1763C22.5544 19.2646 22.4261 19.3149 22.2922 19.3187H19.7453C19.6766 19.3197 19.6085 19.3055 19.5459 19.2772C19.4832 19.2489 19.4276 19.2072 19.3828 19.1551C19.3381 19.1029 19.3054 19.0415 19.287 18.9753C19.2687 18.909 19.2651 18.8396 19.2766 18.7718L19.893 14.3875C19.9175 14.238 19.9933 14.1017 20.1074 14.0019C20.2214 13.9021 20.3665 13.8451 20.518 13.8406H23.0641C23.1246 13.8391 23.1846 13.8511 23.2399 13.8756C23.2953 13.9001 23.3445 13.9366 23.3841 13.9824C23.4236 14.0281 23.4526 14.0821 23.4689 14.1404C23.4851 14.1987 23.4883 14.2598 23.4781 14.3195ZM27.7445 14.3195C27.7233 14.4517 27.6566 14.5724 27.5559 14.6607C27.4552 14.7489 27.3268 14.7993 27.193 14.8031H25.1391C25.1375 14.8032 25.1359 14.8037 25.1347 14.8047C25.1334 14.8057 25.1325 14.807 25.132 14.8085L24.9695 15.9679C24.9693 15.9689 24.9693 15.9698 24.9695 15.9708C24.9697 15.9717 24.9701 15.9726 24.9707 15.9734C24.9713 15.9741 24.9721 15.9748 24.973 15.9752C24.9738 15.9756 24.9748 15.9758 24.9758 15.9757H26.5711C26.6322 15.9739 26.6929 15.9858 26.7488 16.0105C26.8047 16.0352 26.8544 16.072 26.8943 16.1184C26.9341 16.1647 26.9631 16.2194 26.9791 16.2784C26.9951 16.3374 26.9977 16.3992 26.9867 16.4593C26.9655 16.5915 26.8988 16.7122 26.7981 16.8005C26.6974 16.8888 26.569 16.9392 26.4352 16.9429H24.8383C24.8367 16.943 24.8352 16.9436 24.8339 16.9446C24.8327 16.9455 24.8317 16.9469 24.8312 16.9484L24.6352 18.3437C24.6351 18.3456 24.6359 18.3475 24.6372 18.349C24.6385 18.3504 24.6403 18.3513 24.6422 18.3515H26.6945C26.7556 18.3497 26.8164 18.3616 26.8723 18.3863C26.9282 18.4109 26.9779 18.4478 27.0177 18.4942C27.0576 18.5405 27.0865 18.5952 27.1025 18.6542C27.1185 18.7132 27.1211 18.775 27.1102 18.8351C27.0889 18.9673 27.0222 19.088 26.9215 19.1763C26.8208 19.2646 26.6925 19.3149 26.5586 19.3187H24.0117C23.943 19.3197 23.8749 19.3055 23.8123 19.2772C23.7496 19.2489 23.694 19.2072 23.6493 19.1551C23.6045 19.1029 23.5718 19.0415 23.5535 18.9753C23.5351 18.909 23.5315 18.8396 23.543 18.7718L24.1594 14.3875C24.184 14.238 24.2597 14.1017 24.3738 14.0019C24.4878 13.9021 24.6329 13.8451 24.7844 13.8406H27.3305C27.391 13.8391 27.451 13.8511 27.5063 13.8756C27.5617 13.9001 27.6109 13.9366 27.6505 13.9824C27.69 14.0281 27.719 14.0821 27.7353 14.1404C27.7515 14.1987 27.7547 14.2598 27.7445 14.3195ZM30.7133 13.8187C31.4109 13.8187 32.3141 13.8281 33.2203 13.8429C34.3187 13.8609 35.2797 14.3656 35.8563 15.2265C36.4721 16.1549 37.0257 17.1232 37.5133 18.125C37.7711 18.65 37.2969 19.3335 36.6758 19.3335H30.0156L30.7133 13.8187Z" fill="white"/>
<path d="M16.9883 16.4936H15.7539L15.9883 14.803H17.2219C17.2219 14.803 18.1273 14.7444 17.9789 15.6483C17.9828 15.6483 17.8789 16.4936 16.9883 16.4936Z" fill="white"/>
</g>
<defs>
<clipPath id="clip0_25_94">
<rect width="40" height="40" fill="white"/>
</clipPath>
</defs>
</svg>
