<svg width="93" height="31" viewBox="0 0 93 31" fill="none" xmlns="http://www.w3.org/2000/svg">
<g filter="url(#filter0_d_22_6784)">
<path d="M69.7524 6.69226H65.4407C65.1871 6.69226 64.9335 6.94529 64.8066 7.19832L63.0312 18.3316C63.0312 18.5846 63.1581 18.7112 63.4117 18.7112H65.6943C65.948 18.7112 66.0748 18.5846 66.0748 18.3316L66.582 15.1687C66.582 14.9157 66.8357 14.6627 67.2161 14.6627H68.6111C71.5278 14.6627 73.1764 13.271 73.5568 10.4877C73.8104 9.34907 73.5568 8.33695 73.0495 7.70438C72.2887 7.07181 71.1473 6.69226 69.7524 6.69226ZM70.2596 10.8672C70.006 12.3854 68.8647 12.3854 67.7234 12.3854H66.9625L67.4697 9.47558C67.4697 9.34907 67.5965 9.22255 67.8502 9.22255H68.1038C68.8647 9.22255 69.6256 9.22255 70.006 9.72861C70.2596 9.85513 70.2596 10.2347 70.2596 10.8672Z" fill="#139AD6"/>
<path d="M36.6508 6.21228H32.0635C31.7937 6.21228 31.5238 6.487 31.3889 6.76171L29.5 18.8493C29.5 19.124 29.6349 19.2613 29.9048 19.2613H32.0635C32.3333 19.2613 32.6032 18.9866 32.7381 18.7119L33.2778 15.4153C33.2778 15.1406 33.5476 14.8659 33.9524 14.8659H35.4365C38.5397 14.8659 40.2937 13.3549 40.6984 10.333C40.9683 9.09681 40.6984 7.99794 40.1587 7.31115C39.3492 6.62436 38.2699 6.21228 36.6508 6.21228ZM37.1905 10.7451C36.9206 12.3934 35.7064 12.3934 34.4921 12.3934H33.8175L34.3571 9.23417C34.3571 9.09681 34.4921 8.95945 34.7619 8.95945H35.0318C35.8413 8.95945 36.6508 8.95945 37.0556 9.50888C37.1905 9.64624 37.3254 10.0583 37.1905 10.7451Z" fill="#263B80"/>
<path d="M50.5515 10.6081H48.3928C48.2579 10.6081 47.9881 10.7454 47.9881 10.8828L47.8531 11.5696L47.7182 11.2949C47.1785 10.6081 46.2341 10.3334 45.1547 10.3334C42.7261 10.3334 40.5674 12.2564 40.1626 14.8662C39.8928 16.2398 40.2976 17.476 40.9722 18.3002C41.6468 19.1243 42.5912 19.399 43.8055 19.399C45.8293 19.399 46.9087 18.1628 46.9087 18.1628L46.7738 18.8496C46.7738 19.1243 46.9087 19.2617 47.1785 19.2617H49.2023C49.4722 19.2617 49.742 18.987 49.8769 18.7122L51.0912 11.0202C50.9563 10.8828 50.6865 10.6081 50.5515 10.6081ZM47.4484 15.0036C47.1785 16.2398 46.2341 17.2013 44.8849 17.2013C44.2103 17.2013 43.6706 16.9266 43.4007 16.6519C43.1309 16.2398 42.996 15.6904 42.996 15.0036C43.1309 13.7673 44.2103 12.8058 45.4246 12.8058C46.0992 12.8058 46.5039 13.0805 46.9087 13.3553C47.3134 13.7673 47.4484 14.4541 47.4484 15.0036Z" fill="#263B80"/>
<path d="M83.7036 10.5896H81.3896C81.2449 10.5896 80.9557 10.7353 80.9557 10.881L80.8111 11.6094L80.6664 11.318C80.0879 10.5896 79.0755 10.2982 77.9185 10.2982C75.3151 10.2982 73.0011 12.3378 72.5672 15.1058C72.2779 16.5626 72.7118 17.8738 73.4349 18.7479C74.1581 19.622 75.1705 19.9133 76.4722 19.9133C78.6416 19.9133 79.7986 18.6022 79.7986 18.6022L79.654 19.3306C79.654 19.622 79.7986 19.7677 80.0879 19.7677H82.2574C82.5466 19.7677 82.8359 19.4763 82.9805 19.1849L84.2822 11.0266C84.1375 10.881 83.9929 10.5896 83.7036 10.5896ZM80.3772 15.2515C80.0879 16.5626 79.0755 17.5824 77.6292 17.5824C76.9061 17.5824 76.3275 17.291 76.0383 16.9997C75.749 16.5626 75.6044 15.9799 75.6044 15.2515C75.749 13.9403 76.9061 12.9205 78.2077 12.9205C78.9309 12.9205 79.3648 13.2119 79.7986 13.5033C80.3772 13.9403 80.5218 14.6687 80.3772 15.2515Z" fill="#139AD6"/>
<path d="M62.6933 10.2982H60.4221C60.1549 10.2982 60.0213 10.4364 59.8877 10.5745L56.9486 15.2716L55.6126 10.8508C55.479 10.5745 55.3454 10.4364 54.9446 10.4364H52.807C52.5398 10.4364 52.4062 10.7127 52.4062 10.989L54.811 18.3108L52.5398 21.6264C52.4062 21.9027 52.5398 22.3171 52.807 22.3171H54.9446C55.2118 22.3171 55.3454 22.179 55.479 22.0408L62.8269 11.1271C63.2277 10.7127 62.9605 10.2982 62.6933 10.2982Z" fill="#263B80"/>
<path d="M86.1138 7.02382L84.2773 19.4973C84.2773 19.7745 84.4085 19.913 84.6709 19.913H86.5073C86.7696 19.913 87.032 19.6359 87.1632 19.3587L88.9996 7.16241C88.9996 6.88522 88.8684 6.74663 88.6061 6.74663H86.5073C86.3761 6.60804 86.2449 6.74663 86.1138 7.02382Z" fill="#139AD6"/>
<path d="M19.4226 2.30807C18.4838 1.22468 16.7404 0.682983 14.3264 0.682983H7.62096C7.21863 0.682983 6.8163 1.08925 6.68219 1.49553L4 19.2361C4 19.6424 4.26822 19.9132 4.53644 19.9132H8.69383L9.76671 13.2774V13.5483C9.90082 13.142 10.3031 12.7357 10.7055 12.7357H12.7171C16.6063 12.7357 19.5567 11.1106 20.4955 6.64165C20.4955 6.50622 20.4955 6.3708 20.4955 6.23537C20.3614 6.23537 20.3614 6.23537 20.4955 6.23537C20.6296 4.47486 20.3614 3.39146 19.4226 2.30807Z" fill="#263B80"/>
<path d="M20.1882 5.4906C20.1882 5.632 20.1882 5.7734 20.1882 5.9148C19.2965 10.7224 16.4938 12.2777 12.7993 12.2777H10.8884C10.5062 12.2777 10.124 12.7019 9.99661 13.1261L8.72266 21.7515C8.72266 22.0343 8.85005 22.3171 9.23224 22.3171H12.5445C12.9267 22.3171 13.3089 22.0343 13.3089 21.6101V21.4687L13.9459 17.0853V16.8025C13.9459 16.3783 14.328 16.0955 14.7102 16.0955H15.2198C18.4047 16.0955 20.9526 14.6815 21.5896 10.4396C21.8444 8.74277 21.717 7.18739 20.9526 6.19759C20.8252 5.9148 20.5704 5.632 20.1882 5.4906Z" fill="#139AD6"/>
<path d="M19.3468 5.91126C19.2157 5.91126 19.0845 5.77104 18.9533 5.77104C18.8221 5.77104 18.691 5.77104 18.5598 5.63082C18.0351 5.4906 17.5104 5.4906 16.8545 5.4906H11.7388C11.6076 5.4906 11.4764 5.4906 11.3453 5.63082C11.0829 5.77104 10.9517 6.05148 10.9517 6.33192L9.90234 13.6234V13.9038C10.0335 13.4832 10.427 13.0625 10.8206 13.0625H12.7882C16.5922 13.0625 19.478 11.3799 20.3962 6.75258C20.3962 6.61236 20.3962 6.47214 20.5274 6.33192C20.265 6.1917 20.1339 6.05148 19.8715 6.05148C19.478 5.91126 19.478 5.91126 19.3468 5.91126Z" fill="#232C65"/>
</g>
<defs>
<filter id="filter0_d_22_6784" x="0" y="0.682983" width="92.9995" height="29.6342" filterUnits="userSpaceOnUse" color-interpolation-filters="sRGB">
<feFlood flood-opacity="0" result="BackgroundImageFix"/>
<feColorMatrix in="SourceAlpha" type="matrix" values="0 0 0 0 0 0 0 0 0 0 0 0 0 0 0 0 0 0 127 0" result="hardAlpha"/>
<feOffset dy="4"/>
<feGaussianBlur stdDeviation="2"/>
<feComposite in2="hardAlpha" operator="out"/>
<feColorMatrix type="matrix" values="0 0 0 0 0 0 0 0 0 0 0 0 0 0 0 0 0 0 0.25 0"/>
<feBlend mode="normal" in2="BackgroundImageFix" result="effect1_dropShadow_22_6784"/>
<feBlend mode="normal" in="SourceGraphic" in2="effect1_dropShadow_22_6784" result="shape"/>
</filter>
</defs>
</svg>
