<svg width="46" height="29" viewBox="0 0 46 29" fill="none" xmlns="http://www.w3.org/2000/svg">
<rect width="46" height="29" fill="white"/>
<g clip-path="url(#clip0_22_10313)">
<path d="M28.9229 5.63449C27.9976 4.53011 26.325 4.05664 24.1851 4.05664H17.9748C17.7631 4.05665 17.5584 4.13574 17.3973 4.2797C17.2363 4.42365 17.1297 4.62303 17.0965 4.84198L14.5106 22.0152C14.4592 22.3538 14.7096 22.6605 15.0374 22.6605H18.8715L19.8343 16.2651L19.8045 16.4654C19.8731 16.0134 20.2423 15.6799 20.6795 15.6799H22.5014C26.0806 15.6799 28.8831 14.1576 29.7018 9.75396C29.7261 9.62372 29.7471 9.49696 29.7653 9.37311C29.662 9.31582 29.662 9.31582 29.7653 9.37311C30.0091 7.74548 29.7637 6.63755 28.9229 5.63449" fill="#27346A"/>
<path d="M21.3014 8.78678C21.4062 8.73452 21.5208 8.70744 21.6369 8.70751H26.5057C27.0823 8.70751 27.62 8.7468 28.1114 8.82962C28.2489 8.85258 28.3857 8.87999 28.5216 8.91181C28.7142 8.95631 28.9046 9.01078 29.092 9.07501C29.3336 9.1595 29.5586 9.25789 29.7654 9.37311C30.0091 7.74485 29.7637 6.63755 28.9229 5.63449C27.9971 4.53011 26.325 4.05664 24.1851 4.05664H17.9743C17.537 4.05664 17.165 4.39 17.0965 4.84198L14.5106 22.0145C14.4592 22.3537 14.7096 22.66 15.0369 22.66H18.8714L20.8691 9.39453C20.8888 9.26414 20.9384 9.1407 21.0137 9.03484C21.089 8.92897 21.1877 8.84384 21.3014 8.78678V8.78678Z" fill="#27346A"/>
<path d="M29.6986 9.7539C28.88 14.1569 26.0775 15.6799 22.4983 15.6799H20.6758C20.2386 15.6799 19.8693 16.0133 19.8014 16.4653L18.6035 24.4172C18.5587 24.7135 18.7776 24.9821 19.0639 24.9821H22.2959C22.4811 24.982 22.6601 24.9128 22.8009 24.7869C22.9416 24.661 23.0349 24.4866 23.0638 24.2951L23.0953 24.1226L23.7044 20.0801L23.7437 19.8566C23.7726 19.6652 23.8658 19.4908 24.0065 19.3648C24.1473 19.2389 24.3263 19.1697 24.5114 19.1696H24.9952C28.126 19.1696 30.5775 17.8377 31.2939 13.9857C31.5929 12.3759 31.4382 11.0319 30.6472 10.0879C30.4073 9.80195 30.1093 9.5658 29.7622 9.37305C29.7434 9.49752 29.723 9.62366 29.6986 9.7539V9.7539Z" fill="#2790C3"/>
<path d="M28.9082 9.0155C28.7806 8.97647 28.6517 8.94191 28.5219 8.91189C28.3859 8.88059 28.2491 8.85336 28.1117 8.83025C27.6198 8.74688 27.0824 8.70752 26.5053 8.70752H21.6372C21.521 8.70725 21.4063 8.73456 21.3016 8.78742C21.1878 8.8443 21.089 8.92938 21.0136 9.03528C20.9383 9.14117 20.8888 9.2647 20.8693 9.39517L19.8346 16.2652L19.8047 16.4655C19.8728 16.0134 20.242 15.68 20.6793 15.68H22.5017C26.0809 15.68 28.8833 14.1577 29.702 9.75404C29.7264 9.6238 29.7468 9.49759 29.7656 9.37319C29.5583 9.2586 29.3339 9.15958 29.0923 9.07565C29.0313 9.05448 28.97 9.03443 28.9083 9.0155" fill="#1F264F"/>
</g>
<defs>
<clipPath id="clip0_22_10313">
<rect width="17" height="21" fill="white" transform="translate(14.5 4)"/>
</clipPath>
</defs>
</svg>
