<svg width="20" height="20" viewBox="0 0 20 20" fill="none" xmlns="http://www.w3.org/2000/svg">
<path d="M4.6419 6.57249C4.40377 5.00186 5.51252 3.58749 7.20627 3.06999C7.50692 2.97791 7.83138 3.00398 8.11347 3.14288C8.39557 3.28178 8.61406 3.52305 8.72439 3.81749L9.26752 5.26749C9.35498 5.50082 9.37071 5.75496 9.31269 5.99729C9.25467 6.23962 9.12554 6.45907 8.9419 6.62749L7.32627 8.10874C7.24659 8.18194 7.18722 8.27452 7.15392 8.37747C7.12063 8.48043 7.11454 8.59024 7.13627 8.69624L7.15064 8.76124L7.19064 8.92436C7.22627 9.06249 7.28002 9.25624 7.35564 9.48686C7.50564 9.94624 7.74502 10.5637 8.10127 11.1806C8.45752 11.7981 8.87252 12.3137 9.19502 12.6737C9.36298 12.8609 9.53855 13.041 9.72127 13.2137L9.77127 13.2594C9.85202 13.331 9.94996 13.3806 10.0556 13.4031C10.1611 13.4257 10.2708 13.4205 10.3738 13.3881L12.465 12.73C12.7026 12.6552 12.957 12.6531 13.1958 12.7239C13.4345 12.7948 13.6467 12.9353 13.805 13.1275L14.7944 14.3294C15.2069 14.8294 15.1581 15.5637 14.6838 16.0056C13.3875 17.2144 11.605 17.4619 10.365 16.465C8.84505 15.2389 7.56371 13.7436 6.58502 12.0537C5.59816 10.3652 4.93892 8.50557 4.6419 6.57249ZM8.44564 8.77874L9.7869 7.54874C10.154 7.21189 10.412 6.77304 10.5279 6.28852C10.6439 5.80399 10.6124 5.29587 10.4375 4.82936L9.89377 3.37936C9.67194 2.78694 9.23253 2.30142 8.6651 2.02178C8.09768 1.74213 7.44497 1.68941 6.84002 1.87436C4.73752 2.51874 3.04877 4.40374 3.40627 6.75999C3.65627 8.40499 4.23315 10.4975 5.5044 12.6825C6.56006 14.5046 7.94204 16.1169 9.58127 17.4387C11.4406 18.9331 13.9244 18.4231 15.5363 16.92C15.9973 16.4901 16.2771 15.9007 16.3185 15.2717C16.36 14.6427 16.16 14.0216 15.7594 13.535L14.77 12.3331C14.4533 11.9485 14.029 11.6672 13.5513 11.5255C13.0737 11.3837 12.5646 11.3879 12.0894 11.5375L10.3538 12.0837C10.2875 12.015 10.21 11.9331 10.1256 11.8387C9.76893 11.4441 9.45334 11.0142 9.18377 10.5556C8.92136 10.093 8.70672 9.60484 8.54315 9.09874C8.50847 8.99275 8.47596 8.88606 8.44564 8.77874Z" fill="white"/>
</svg>
