<svg width="14" height="18" viewBox="0 0 14 18" fill="none" xmlns="http://www.w3.org/2000/svg">
<path d="M1.64299 5.57234C1.40487 4.00171 2.51362 2.58734 4.20737 2.06984C4.50802 1.97776 4.83248 2.00383 5.11457 2.14272C5.39667 2.28162 5.61516 2.52289 5.72549 2.81734L6.26862 4.26734C6.35608 4.50066 6.37181 4.7548 6.31378 4.99713C6.25576 5.23946 6.12664 5.45892 5.94299 5.62734L4.32737 7.10859C4.24769 7.18179 4.18831 7.27437 4.15502 7.37732C4.12172 7.48027 4.11564 7.59009 4.13737 7.69609L4.15174 7.76109L4.19174 7.92421C4.22737 8.06234 4.28112 8.25609 4.35674 8.48671C4.50674 8.94609 4.74612 9.56359 5.10237 10.1805C5.45862 10.798 5.87362 11.3136 6.19612 11.6736C6.36408 11.8607 6.53965 12.0409 6.72237 12.2136L6.77237 12.2592C6.85312 12.3309 6.95106 12.3804 7.05665 12.403C7.16224 12.4255 7.27187 12.4204 7.37487 12.388L9.46612 11.7298C9.70366 11.6551 9.95812 11.653 10.1969 11.7238C10.4356 11.7946 10.6478 11.9351 10.8061 12.1273L11.7955 13.3292C12.208 13.8292 12.1592 14.5636 11.6849 15.0055C10.3886 16.2142 8.60612 16.4617 7.36612 15.4648C5.84615 14.2388 4.56481 12.7435 3.58612 11.0536C2.59926 9.36506 1.94001 7.50542 1.64299 5.57234ZM5.44674 7.77859L6.78799 6.54859C7.15506 6.21173 7.41311 5.77289 7.52903 5.28836C7.64496 4.80384 7.61347 4.29572 7.43862 3.82921L6.89487 2.37921C6.67304 1.78679 6.23362 1.30127 5.6662 1.02163C5.09878 0.741979 4.44607 0.689259 3.84112 0.874212C1.73862 1.51859 0.0498685 3.40359 0.407368 5.75984C0.657368 7.40484 1.23424 9.49734 2.50549 11.6823C3.56116 13.5044 4.94314 15.1167 6.58237 16.4386C8.44174 17.933 10.9255 17.423 12.5374 15.9198C12.9984 15.49 13.2782 14.9005 13.3196 14.2715C13.3611 13.6426 13.1611 13.0215 12.7605 12.5348L11.7711 11.333C11.4544 10.9483 11.0301 10.6671 10.5524 10.5253C10.0748 10.3836 9.56573 10.3877 9.09049 10.5373L7.35487 11.0836C7.28862 11.0148 7.21112 10.933 7.12674 10.8386C6.77002 10.444 6.45444 10.014 6.18487 9.55546C5.92246 9.09282 5.70781 8.60468 5.54424 8.09859C5.50957 7.9926 5.47706 7.88591 5.44674 7.77859Z" fill="white"/>
</svg>
