<svg width="15" height="13" viewBox="0 0 15 13" fill="none" xmlns="http://www.w3.org/2000/svg">
<path d="M13.4502 5.7001H8.3502V0.900098C8.3502 0.687924 8.26064 0.484441 8.10124 0.334412C7.94183 0.184383 7.72563 0.100098 7.5002 0.100098C7.27476 0.100098 7.05856 0.184383 6.89915 0.334412C6.73975 0.484441 6.6502 0.687924 6.6502 0.900098V5.7001H1.5502C1.32476 5.7001 1.10856 5.78438 0.949155 5.93441C0.789749 6.08444 0.700195 6.28792 0.700195 6.5001C0.700195 6.71227 0.789749 6.91575 0.949155 7.06578C1.10856 7.21581 1.32476 7.3001 1.5502 7.3001H6.6502V12.1001C6.6502 12.3123 6.73975 12.5158 6.89915 12.6658C7.05856 12.8158 7.27476 12.9001 7.5002 12.9001C7.72563 12.9001 7.94183 12.8158 8.10124 12.6658C8.26064 12.5158 8.3502 12.3123 8.3502 12.1001V7.3001H13.4502C13.6756 7.3001 13.8918 7.21581 14.0512 7.06578C14.2106 6.91575 14.3002 6.71227 14.3002 6.5001C14.3002 6.28792 14.2106 6.08444 14.0512 5.93441C13.8918 5.78438 13.6756 5.7001 13.4502 5.7001Z" fill="#202223"/>
</svg>
