<svg width="34" height="38" viewBox="0 0 34 38" fill="none" xmlns="http://www.w3.org/2000/svg">
<path d="M27.1226 7.95251L25.3137 10.2757C27.8777 12.2632 29.6447 15.1036 30.2942 18.282C30.9438 21.4604 30.4329 24.7663 28.8543 27.6004C27.2756 30.4345 24.7336 32.609 21.6893 33.7298C18.645 34.8506 15.2998 34.8433 12.2603 33.7094C9.22084 32.5755 6.68829 30.39 5.12187 27.5492C3.55545 24.7083 3.05885 21.4002 3.72213 18.2246C4.3854 15.0491 6.16463 12.2163 8.73721 10.24C11.3098 8.26361 14.5054 7.27453 17.7446 7.45205L15.1995 10.122L17.0874 11.9236L21.105 7.70288L22.9048 5.81258L21.0199 4.01816L16.8022 0L15.0011 1.8903L17.7483 4.50716C13.5347 4.31529 9.40761 5.7446 6.21521 8.50136C3.02281 11.2581 1.00756 15.133 0.583595 19.3296C0.159628 23.5261 1.35915 27.7257 3.93566 31.0653C6.51216 34.4049 10.2699 36.6308 14.4368 37.2856C15.2966 37.4214 16.1657 37.4898 17.0362 37.49C20.4726 37.4814 23.8207 36.4004 26.6134 34.3978C29.406 32.3952 31.5039 29.5708 32.6144 26.3187C33.725 23.0666 33.7927 19.549 32.8082 16.2566C31.8237 12.9642 29.836 10.0611 27.1226 7.95251Z" fill="#7E7E7E"/>
<path d="M18.6179 29.4024V27.7081C20.627 27.4838 22.5812 26.2152 22.5812 23.8057C22.5812 20.5322 19.5374 20.1572 17.3143 19.8834C15.8931 19.7134 14.8047 19.5162 14.8047 18.6552C14.8047 17.4577 16.4931 17.3287 17.2166 17.3287C18.2935 17.3287 19.4428 17.8352 19.8335 18.4809L19.9468 18.6691L22.1778 17.6356L22.0675 17.4107C21.7364 16.756 21.2471 16.1943 20.6439 15.7766C20.0408 15.359 19.343 15.0984 18.6137 15.0187V13.5264H16.0028V15.0115C13.5687 15.3732 12.1228 16.7215 12.1228 18.6546C12.1228 21.8063 14.9844 22.1259 17.0725 22.3604C18.9333 22.5799 19.7991 23.0393 19.7991 23.8075C19.7991 25.2709 17.7725 25.3849 17.1515 25.3849C15.7689 25.3849 14.4381 24.6951 14.0498 23.7786L13.954 23.5525L11.5312 24.5793L11.6277 24.8054C12.3459 26.4871 13.8961 27.5405 16.0059 27.7895V29.4024H18.6179Z" fill="#7E7E7E"/>
</svg>
