<svg width="21" height="21" viewBox="0 0 21 21" fill="none" xmlns="http://www.w3.org/2000/svg">
<path d="M20.7114 19.2899L17.0014 15.6099C18.4415 13.8143 19.1389 11.5352 18.9502 9.2412C18.7615 6.94721 17.701 4.81269 15.9869 3.27655C14.2727 1.74041 12.0352 0.919414 9.73429 0.982375C7.43341 1.04534 5.24409 1.98747 3.61651 3.61505C1.98893 5.24263 1.0468 7.43194 0.98384 9.73283C0.920879 12.0337 1.74188 14.2713 3.27801 15.9854C4.81415 17.6996 6.94867 18.76 9.24267 18.9487C11.5367 19.1374 13.8158 18.44 15.6114 16.9999L19.2914 20.6799C19.3843 20.7736 19.4949 20.848 19.6168 20.8988C19.7387 20.9496 19.8694 20.9757 20.0014 20.9757C20.1334 20.9757 20.2641 20.9496 20.3859 20.8988C20.5078 20.848 20.6184 20.7736 20.7114 20.6799C20.8916 20.4934 20.9924 20.2442 20.9924 19.9849C20.9924 19.7256 20.8916 19.4764 20.7114 19.2899ZM10.0014 16.9999C8.6169 16.9999 7.26352 16.5894 6.11238 15.8202C4.96123 15.051 4.06403 13.9578 3.53421 12.6787C3.0044 11.3996 2.86578 9.99214 3.13587 8.63427C3.40597 7.27641 4.07265 6.02912 5.05162 5.05016C6.03059 4.07119 7.27787 3.4045 8.63574 3.13441C9.9936 2.86431 11.4011 3.00293 12.6802 3.53275C13.9592 4.06256 15.0525 4.95977 15.8217 6.11091C16.5908 7.26206 17.0014 8.61544 17.0014 9.9999C17.0014 11.8564 16.2639 13.6369 14.9511 14.9497C13.6384 16.2624 11.8579 16.9999 10.0014 16.9999Z" fill="url(#paint0_linear_133_7836)"/>
<defs>
<linearGradient id="paint0_linear_133_7836" x1="0.980469" y1="0.979004" x2="24.4303" y2="15.376" gradientUnits="userSpaceOnUse">
<stop stop-color="#F3F9FF"/>
<stop offset="1" stop-color="#F1F0FF"/>
</linearGradient>
</defs>
</svg>
