<svg width="30" height="30" viewBox="0 0 30 30" fill="none" xmlns="http://www.w3.org/2000/svg">
<path d="M25.6911 24.1453L21.6125 20.0966C23.1957 18.1212 23.9624 15.6137 23.7549 13.0899C23.5475 10.5661 22.3817 8.21775 20.4973 6.52772C18.6128 4.83769 16.153 3.93444 13.6235 4.00371C11.094 4.07298 8.6872 5.10949 6.89792 6.90013C5.10865 8.69076 4.07292 11.0994 4.00371 13.6308C3.93449 16.1622 4.83705 18.6239 6.5258 20.5098C8.21455 22.3957 10.5611 23.5623 13.083 23.7699C15.6049 23.9775 18.1105 23.2103 20.0844 21.6259L24.13 25.6746C24.2322 25.7777 24.3538 25.8595 24.4878 25.9154C24.6217 25.9712 24.7654 26 24.9106 26C25.0557 26 25.1994 25.9712 25.3333 25.9154C25.4673 25.8595 25.5889 25.7777 25.6911 25.6746C25.8892 25.4694 26 25.1953 26 24.9099C26 24.6246 25.8892 24.3505 25.6911 24.1453ZM13.9171 21.6259C12.3951 21.6259 10.9073 21.1742 9.64175 20.328C8.37624 19.4818 7.3899 18.279 6.80745 16.8718C6.225 15.4646 6.07261 13.9161 6.36953 12.4222C6.66646 10.9283 7.39938 9.55605 8.47561 8.47901C9.55183 7.40197 10.923 6.66849 12.4158 6.37134C13.9086 6.07418 15.4559 6.22669 16.862 6.80958C18.2682 7.39247 19.47 8.37956 20.3156 9.64603C21.1612 10.9125 21.6125 12.4015 21.6125 13.9246C21.6125 15.9671 20.8018 17.926 19.3586 19.3702C17.9154 20.8145 15.958 21.6259 13.9171 21.6259Z" fill="black"/>
</svg>
