<svg width="52" height="33" viewBox="0 0 52 33" fill="none" xmlns="http://www.w3.org/2000/svg">
<path d="M51.5 16.9965C51.5 16.9871 51.5 16.9776 51.5 16.9682C51.4956 16.6636 51.3701 16.3731 51.1506 16.1596C50.9312 15.9461 50.6355 15.827 50.3278 15.828H50.0198L45.256 6.71917C45.1569 6.53017 45.007 6.3719 44.8229 6.26176C44.6388 6.15162 44.4275 6.09389 44.2124 6.09491H36.0841L36.394 3.66148C36.4448 3.19618 36.3952 2.72551 36.2485 2.28061C36.1018 1.8357 35.8614 1.42669 35.5431 1.08062C35.2248 0.734541 34.836 0.459284 34.4022 0.273055C33.9685 0.0868248 33.4998 -0.00613534 33.027 0.00031402H7.79907C7.49086 0.00194505 7.19418 0.116541 6.96631 0.321985C6.73844 0.527428 6.59553 0.809153 6.56517 1.11277L6.31062 3.11722H20.6861C20.9063 3.11609 21.1244 3.15893 21.3275 3.24317C21.5306 3.32742 21.7145 3.45133 21.8681 3.60752C22.0217 3.7637 22.142 3.94894 22.2216 4.15217C22.3013 4.3554 22.3387 4.57244 22.3317 4.79032C22.3177 5.23717 22.1291 5.66123 21.8057 5.97328C21.4823 6.28532 21.0492 6.46102 20.5976 6.46342H15.8032V6.47035H1.7269C1.40786 6.47197 1.10187 6.59593 0.873203 6.81617C0.644539 7.03642 0.510997 7.33581 0.50063 7.65147C0.49549 7.80566 0.521838 7.95928 0.578097 8.10315C0.634356 8.24702 0.719367 8.37817 0.828041 8.48874C0.936714 8.59932 1.06681 8.68704 1.21055 8.74667C1.35428 8.80629 1.50869 8.83659 1.66454 8.83574H20.3036C20.7273 8.89948 21.1127 9.11476 21.3869 9.44085C21.6611 9.76693 21.805 10.1812 21.7914 10.6052C21.7762 11.0817 21.5758 11.5339 21.232 11.8677C20.8882 12.2015 20.4275 12.391 19.946 12.3967H7.09844C6.77549 12.3984 6.4658 12.5241 6.23467 12.7474C6.00353 12.9707 5.869 13.2741 5.85944 13.5936C5.85413 13.7494 5.88064 13.9046 5.9374 14.05C5.99415 14.1954 6.07998 14.328 6.18974 14.4397C6.29949 14.5515 6.43091 14.6402 6.57612 14.7004C6.72133 14.7607 6.87734 14.7913 7.0348 14.7905H19.7341C20.1618 14.8489 20.5528 15.0616 20.8318 15.3878C21.1109 15.714 21.2584 16.1308 21.246 16.5581C21.2309 17.0368 21.0288 17.4911 20.6822 17.8253C20.3357 18.1595 19.8717 18.3477 19.3879 18.3502H4.8209H3.59653C3.27358 18.3519 2.9639 18.4776 2.73276 18.7009C2.50163 18.9242 2.3671 19.2276 2.35754 19.5471C2.35222 19.7029 2.37874 19.8581 2.43549 20.0035C2.49225 20.1489 2.57808 20.2815 2.68783 20.3932C2.79759 20.505 2.92901 20.5937 3.07422 20.6539C3.21943 20.7142 3.37544 20.7448 3.5329 20.744H4.58926L4.17626 25.0237C4.1256 25.489 4.17528 25.9596 4.32201 26.4044C4.46874 26.8493 4.70919 27.2582 5.02745 27.6042C5.3457 27.9502 5.73453 28.2254 6.16822 28.4116C6.60191 28.5978 7.07058 28.6907 7.54325 28.6843H8.45516C8.66915 29.8969 9.30977 30.9955 10.2636 31.7854C11.2174 32.5753 12.4228 33.0055 13.6663 32.9999C14.9312 32.9912 16.1562 32.5605 17.1431 31.7773C18.1301 30.9942 18.8214 29.9045 19.1053 28.6843H30.4778C31.3855 28.6763 32.2613 28.3512 32.9507 27.7665C33.5847 28.3644 34.4295 28.6937 35.3052 28.6843H35.4923C35.7063 29.8969 36.3469 30.9955 37.3007 31.7854C38.2545 32.5753 39.4599 33.0055 40.7035 32.9999C41.9683 32.9912 43.1933 32.5605 44.1803 31.7773C45.1672 30.9942 45.8586 29.9045 46.1425 28.6843H46.8915C47.8569 28.6659 48.7823 28.2993 49.4941 27.6534C50.2059 27.0075 50.6551 26.1267 50.7574 25.1762L51.493 17.1131C51.493 17.1023 51.493 17.0916 51.493 17.0803C51.493 17.069 51.4962 17.0475 51.4968 17.0305C51.4975 17.0135 51.5 17.006 51.5 16.9965ZM13.7293 30.6081C13.3362 30.6098 12.9468 30.5331 12.5843 30.3826C12.2218 30.2321 11.8936 30.0109 11.6194 29.7321C11.3451 29.4533 11.1304 29.1227 10.988 28.76C10.8456 28.3973 10.7785 28.0099 10.7906 27.621C10.8166 26.8234 11.1536 26.0668 11.7309 25.5098C12.3083 24.9529 13.081 24.6389 13.8872 24.6338C14.2803 24.6321 14.6697 24.7088 15.0322 24.8593C15.3947 25.0098 15.7229 25.231 15.9971 25.5098C16.2714 25.7886 16.4861 26.1192 16.6285 26.4819C16.7709 26.8446 16.838 27.232 16.8259 27.621C16.7999 28.4185 16.4629 29.1751 15.8856 29.7321C15.3082 30.289 14.5354 30.603 13.7293 30.6081ZM40.7677 30.6081C40.3746 30.6098 39.9852 30.5331 39.6227 30.3826C39.2602 30.2321 38.932 30.0109 38.6578 29.7321C38.3835 29.4533 38.1688 29.1227 38.0264 28.76C37.884 28.3973 37.8169 28.0099 37.829 27.621C37.855 26.8234 38.192 26.0668 38.7693 25.5098C39.3467 24.9529 40.1194 24.6389 40.9256 24.6338C41.3187 24.6321 41.7081 24.7088 42.0706 24.8593C42.4331 25.0098 42.7613 25.231 43.0355 25.5098C43.3098 25.7886 43.5245 26.1192 43.6669 26.4819C43.8093 26.8446 43.8764 27.232 43.8643 27.621C43.8383 28.4185 43.5013 29.1751 42.924 29.7321C42.3466 30.289 41.5739 30.603 40.7677 30.6081ZM48.3551 25.0212C48.3146 25.3641 48.151 25.6812 47.8939 25.9146C47.6369 26.148 47.3037 26.2821 46.9551 26.2924H46.1456C45.8785 25.1385 45.2225 24.109 44.2857 23.3732C43.3489 22.6374 42.187 22.2391 40.9911 22.2439C39.7738 22.2522 38.5921 22.6514 37.6236 23.3815C36.6551 24.1115 35.9521 25.133 35.6202 26.2924H35.3714C35.2273 26.2957 35.0841 26.2688 34.9512 26.2135C34.8183 26.1583 34.6987 26.0759 34.6001 25.9718C34.5036 25.8639 34.4311 25.7372 34.3872 25.5998C34.3434 25.4624 34.3292 25.3175 34.3456 25.1743L35.8678 8.48109H39.3633L38.8097 14.5599C38.7589 15.0252 38.8085 15.4959 38.9552 15.9408C39.1019 16.3857 39.3423 16.7947 39.6606 17.1408C39.9789 17.4869 40.3677 17.7621 40.8014 17.9484C41.2352 18.1346 41.7039 18.2276 42.1767 18.2211H48.9749L48.3551 25.0212Z" fill="#7E7E7E"/>
</svg>
