<svg width="34" height="44" viewBox="0 0 34 44" fill="none" xmlns="http://www.w3.org/2000/svg">
<path d="M0.5 34.4197V43.5128H33.6434V34.4197C33.6421 33.4059 33.2388 32.434 32.5219 31.7171C31.8051 31.0003 30.8332 30.597 29.8194 30.5957H4.32395C3.31018 30.597 2.3383 31.0003 1.62145 31.7171C0.904602 32.434 0.501303 33.4059 0.5 34.4197H0.5ZM3.0493 34.4197C3.04979 34.0817 3.18424 33.7578 3.42318 33.5189C3.66212 33.2799 3.98604 33.1455 4.32395 33.145H5.5986V40.9653H3.0493V34.4197ZM8.14852 33.145H11.4448L17.0717 38.772L22.6986 33.145H25.993V40.9653H8.14852V33.145ZM31.0941 34.4197V40.9635H28.5448V33.1432H29.8194C30.1577 33.1436 30.4819 33.2784 30.7209 33.5177C30.9599 33.757 31.0941 34.0814 31.0941 34.4197ZM19.0933 33.145L17.0717 35.1666L15.0501 33.145H19.0933Z" fill="#7E7E7E"/>
<path d="M26.6088 25.4946H28.5466V22.9453H29.8213C30.8351 22.9439 31.8069 22.5407 32.5238 21.8238C33.2406 21.107 33.6439 20.1351 33.6452 19.1213V16.572C33.6451 12.1767 31.8989 7.96142 28.7908 4.85357C25.6827 1.74572 21.4673 -0.000163302 17.072 1.14565e-08C12.6767 0.000163325 8.46142 1.74636 5.35357 4.85444C2.24572 7.96253 0.499837 12.1779 0.5 16.5732L0.5 19.1225C0.501303 20.1363 0.904602 21.1082 1.62145 21.825C2.3383 22.5419 3.31018 22.9452 4.32395 22.9465H6.25502C6.96395 24.9543 8.21783 26.725 9.87622 28.0605C11.5346 29.396 13.532 30.2434 15.6448 30.5079C17.7576 30.7724 19.9022 30.4435 21.8387 29.5581C23.7751 28.6726 25.4268 27.2656 26.6088 25.4946ZM29.8213 20.3953H28.4727C28.5202 19.9721 28.544 19.5466 28.5442 19.1207V16.5714C28.544 16.1455 28.5202 15.72 28.4727 15.2967H29.8188C30.1567 15.2972 30.4807 15.4317 30.7196 15.6706C30.9585 15.9095 31.093 16.2335 31.0935 16.5714V19.1207C31.0936 19.459 30.9595 19.7836 30.7205 20.0231C30.4815 20.2625 30.1572 20.3973 29.8188 20.3978L29.8213 20.3953ZM17.0717 2.55084C20.1367 2.55478 23.1163 3.5611 25.5561 5.4163C27.9959 7.27151 29.7619 9.87379 30.5848 12.8263C30.3329 12.7749 30.0765 12.7492 29.8194 12.7493H27.8878C27.0969 10.5125 25.6321 8.57591 23.695 7.20617C21.7579 5.83643 19.4438 5.10092 17.0714 5.10092C14.6989 5.10092 12.3848 5.83643 10.4477 7.20617C8.51063 8.57591 7.04583 10.5125 6.25502 12.7493H4.32395C4.06688 12.7492 3.81045 12.7749 3.55855 12.8263C4.3815 9.87379 6.14753 7.27151 8.5873 5.4163C11.0271 3.5611 14.0067 2.55478 17.0717 2.55084ZM24.392 11.4771C23.5678 12.6545 22.4724 13.6164 21.1984 14.2815C19.9243 14.9466 18.5089 15.2954 17.0717 15.2986H8.23966C8.49487 13.5262 9.27758 11.8717 10.486 10.5503C11.6943 9.22889 13.2725 8.30173 15.015 7.88947C16.7575 7.47721 18.5837 7.59892 20.2561 8.23878C21.9285 8.87863 23.3697 10.007 24.392 11.4771ZM4.32395 20.3978C3.98604 20.3973 3.66212 20.2629 3.42318 20.0239C3.18424 19.785 3.04979 19.4611 3.0493 19.1231V16.5738C3.04979 16.2359 3.18424 15.912 3.42318 15.6731C3.66212 15.4341 3.98604 15.2997 4.32395 15.2992H5.6725C5.62503 15.7224 5.60119 16.148 5.60107 16.5738V19.1231C5.60119 19.549 5.62503 19.9746 5.6725 20.3978H4.32395ZM8.1479 19.1231V17.8485H17.0717C18.6858 17.8455 20.2812 17.5032 21.7545 16.8438C23.2278 16.1844 24.546 15.2226 25.6236 14.0209C25.8713 14.849 25.9968 15.7088 25.9961 16.5732V19.1225C25.9975 20.4455 25.7029 21.7521 25.134 22.9465H20.8956L19.7737 21.827C19.0565 22.5441 18.0838 22.947 17.0695 22.947C16.0553 22.947 15.0826 22.5441 14.3654 21.827L12.563 23.6294C13.6478 24.7142 15.0876 25.3713 16.6179 25.4801C18.1482 25.5889 19.6664 25.1421 20.8938 24.2218V25.4946H23.3076C22.0531 26.7235 20.4637 27.5547 18.7387 27.8839C17.0137 28.2131 15.2299 28.0257 13.6109 27.3452C11.992 26.6647 10.61 25.5214 9.63826 24.0586C8.66652 22.5958 8.14827 20.8787 8.14852 19.1225L8.1479 19.1231Z" fill="#7E7E7E"/>
</svg>
