<svg width="27" height="27" viewBox="0 0 27 27" fill="none" xmlns="http://www.w3.org/2000/svg">
<rect x="0.75" y="0.25" width="25.5" height="26.5" rx="1.75" stroke="#BCBCBC" stroke-width="0.5"/>
<path d="M18.6411 13.7903C18.8721 13.494 19 13.1309 19 12.7532C19 12.1539 18.6549 11.5866 18.0994 11.2702C17.9564 11.1888 17.7935 11.146 17.6278 11.1461H14.3305L14.413 9.50565C14.4323 9.10922 14.2879 8.73281 14.0074 8.44583C13.8697 8.30438 13.7036 8.19184 13.5194 8.11516C13.3352 8.03848 13.1367 7.99929 12.9363 8.00001C12.2213 8.00001 11.5888 8.46719 11.399 9.13591L10.2179 13.2871H10.2137V19H16.7079C16.8344 19 16.9581 18.976 17.0722 18.9279C17.7267 18.657 18.1489 18.0363 18.1489 17.3475C18.1489 17.1793 18.1241 17.0138 18.0746 16.8537C18.3056 16.5573 18.4335 16.1943 18.4335 15.8165C18.4335 15.6483 18.4088 15.4828 18.3593 15.3227C18.5903 15.0263 18.7181 14.6633 18.7181 14.2855C18.7154 14.1173 18.6906 13.9505 18.6411 13.7903ZM8 13.7142V18.5729C8 18.8091 8.19662 19 8.44 19H9.33375V13.2871H8.44C8.19662 13.2871 8 13.478 8 13.7142Z" fill="#767676"/>
</svg>
