<svg width="27" height="27" viewBox="0 0 27 27" fill="none" xmlns="http://www.w3.org/2000/svg">
<rect x="0.75" y="0.25" width="25.5" height="26.5" rx="1.75" stroke="#BCBCBC" stroke-width="0.5"/>
<path d="M18.6411 13.2103C18.6906 13.0501 18.7154 12.8846 18.7154 12.7164C18.7154 12.3386 18.5875 11.9755 18.3565 11.6791C18.406 11.5189 18.4307 11.3534 18.4307 11.1852C18.4307 10.8074 18.3029 10.4443 18.0719 10.1479C18.1214 9.98774 18.1461 9.82221 18.1461 9.654C18.1461 8.96517 17.724 8.34442 17.0695 8.07342C16.9545 8.02527 16.8304 8.00073 16.7051 8.00133H10.2137V13.7149H10.2179L11.3976 17.864C11.5874 18.5328 12.2199 19 12.9349 19C13.3432 19 13.7241 18.8425 14.006 18.5541C14.2879 18.2671 14.4323 17.8907 14.4116 17.4942L14.3291 15.8535H17.6278C17.7941 15.8535 17.9564 15.8108 18.0994 15.7294C18.6549 15.4157 19 14.847 19 14.2476C19 13.8698 18.8721 13.5067 18.6411 13.2103ZM8 8.42718V13.2864C8 13.5227 8.19662 13.7136 8.44 13.7136H9.33375V8H8.44C8.19662 8 8 8.1909 8 8.42718Z" fill="#767676"/>
</svg>
