<svg xmlns="http://www.w3.org/2000/svg" width="28" height="28" viewBox="0 0 28 28" fill="none">
  <path d="M14 3.67143C14.8297 3.67143 15.6401 3.897 16.3288 4.31879C17.0174 4.74054 17.5527 5.33912 17.8684 6.03778C18.184 6.7363 18.2664 7.50434 18.1056 8.24522C17.9449 8.98619 17.5477 9.66811 16.9629 10.2042C16.378 10.7404 15.6317 11.1064 14.8182 11.2547C14.0046 11.4031 13.1613 11.3269 12.3954 11.036C11.6295 10.7452 10.9763 10.2533 10.5174 9.62369C10.0585 8.99422 9.81429 8.25518 9.81429 7.5C9.81429 6.48755 10.253 5.5146 11.0371 4.7958C11.8216 4.07673 12.8872 3.67143 14 3.67143ZM14 1.9C12.7954 1.9 11.6172 2.22741 10.6143 2.84164C9.61145 3.45591 8.8284 4.32988 8.3656 5.35406C7.90273 6.37839 7.78146 7.50611 8.01757 8.5942C8.25365 9.68219 8.83613 10.6803 9.68979 11.4628C10.5434 12.2452 11.6299 12.7772 12.8115 12.9927C13.9932 13.2082 15.218 13.0976 16.3316 12.6748C17.4452 12.252 18.3983 11.5355 19.0696 10.6145C19.741 9.69349 20.1 8.60961 20.1 7.5C20.1 6.01184 19.455 4.58659 18.3102 3.5372C17.1657 2.48807 15.6151 1.9 14 1.9Z" fill="#1E1E1E" stroke="black" stroke-width="0.2"/>
  <path d="M22 25.1H22.1V25V20.8333C22.1 19.261 21.5004 17.7523 20.4319 16.6393C19.3633 15.5262 17.9131 14.9 16.4 14.9H11.6C10.0869 14.9 8.63668 15.5262 7.56806 16.6393C6.49958 17.7523 5.9 19.261 5.9 20.8333V25V25.1H6H7.6H7.7V25V20.8333C7.7 19.7535 8.11184 18.7187 8.84371 17.9563C9.57545 17.1941 10.567 16.7667 11.6 16.7667H16.4C16.9116 16.7667 17.4182 16.8716 17.8911 17.0757C18.364 17.2797 18.7939 17.5789 19.1563 17.9563C19.5186 18.3338 19.8063 18.7821 20.0026 19.2758C20.1989 19.7695 20.3 20.2987 20.3 20.8333V25V25.1H20.4H22Z" fill="#1E1E1E" stroke="black" stroke-width="0.2"/>
</svg>