<svg width="24" height="24" viewBox="0 0 24 24" fill="none" xmlns="http://www.w3.org/2000/svg">
 <path d="M9.86644 4H5.17329C4.5253 4 4 4.53063 4 5.18519V9.92593C4 10.5805 4.5253 11.1111 5.17329 11.1111H9.86644C10.5144 11.1111 11.0397 10.5805 11.0397 9.92593V5.18519C11.0397 4.53063 10.5144 4 9.86644 4Z" fill="black" />
 <path d="M18.8274 4H14.1342C13.4862 4 12.9609 4.53063 12.9609 5.18519V9.92593C12.9609 10.5805 13.4862 11.1111 14.1342 11.1111H18.8274C19.4754 11.1111 20.0007 10.5805 20.0007 9.92593V5.18519C20.0007 4.53063 19.4754 4 18.8274 4Z" fill="black" />
 <path d="M9.86644 12.8889H5.17329C4.5253 12.8889 4 13.4195 4 14.0741V18.8148C4 19.4694 4.5253 20 5.17329 20H9.86644C10.5144 20 11.0397 19.4694 11.0397 18.8148V14.0741C11.0397 13.4195 10.5144 12.8889 9.86644 12.8889Z" fill="black" />
 <path d="M18.8274 12.8889H14.1342C13.4862 12.8889 12.9609 13.4195 12.9609 14.0741V18.8148C12.9609 19.4694 13.4862 20 14.1342 20H18.8274C19.4754 20 20.0007 19.4694 20.0007 18.8148V14.0741C20.0007 13.4195 19.4754 12.8889 18.8274 12.8889Z" fill="black" />
</svg>