<svg width="25" height="24" viewBox="0 0 25 24" fill="none" xmlns="http://www.w3.org/2000/svg">
<path d="M6.5 16.3077H4.5C4.36739 16.3077 4.24021 16.3725 4.14645 16.4879C4.05268 16.6033 4 16.7599 4 16.9231V19.3846C4 19.5478 4.05268 19.7044 4.14645 19.8198C4.24021 19.9352 4.36739 20 4.5 20H6.5C6.63261 20 6.75979 19.9352 6.85355 19.8198C6.94732 19.7044 7 19.5478 7 19.3846V16.9231C7 16.7599 6.94732 16.6033 6.85355 16.4879C6.75979 16.3725 6.63261 16.3077 6.5 16.3077ZM6.5 4H4.5C4.36739 4 4.24021 4.06483 4.14645 4.18024C4.05268 4.29565 4 4.45217 4 4.61538V7.07692C4 7.24013 4.05268 7.39666 4.14645 7.51207C4.24021 7.62747 4.36739 7.69231 4.5 7.69231H6.5C6.63261 7.69231 6.75979 7.62747 6.85355 7.51207C6.94732 7.39666 7 7.24013 7 7.07692V4.61538C7 4.45217 6.94732 4.29565 6.85355 4.18024C6.75979 4.06483 6.63261 4 6.5 4ZM6.5 10.1538H4.5C4.36739 10.1538 4.24021 10.2187 4.14645 10.3341C4.05268 10.4495 4 10.606 4 10.7692V13.2308C4 13.394 4.05268 13.5505 4.14645 13.6659C4.24021 13.7813 4.36739 13.8462 4.5 13.8462H5.5H6.5C6.63261 13.8462 6.75979 13.7813 6.85355 13.6659C6.94732 13.5505 7 13.394 7 13.2308V10.7692C7 10.606 6.94732 10.4495 6.85355 10.3341C6.75979 10.2187 6.63261 10.1538 6.5 10.1538ZM19.5 16.9231H9.5C9.36739 16.9231 9.24021 16.9879 9.14645 17.1033C9.05268 17.2187 9 17.3753 9 17.5385V18.7692C9 18.9324 9.05268 19.089 9.14645 19.2044C9.24021 19.3198 9.36739 19.3846 9.5 19.3846H19.5C19.6326 19.3846 19.7598 19.3198 19.8536 19.2044C19.9473 19.089 20 18.9324 20 18.7692V17.5385C20 17.3753 19.9473 17.2187 19.8536 17.1033C19.7598 16.9879 19.6326 16.9231 19.5 16.9231ZM19.5 4.61538H9.5C9.36739 4.61538 9.24021 4.68022 9.14645 4.79563C9.05268 4.91103 9 5.06756 9 5.23077V6.46154C9 6.62475 9.05268 6.78127 9.14645 6.89668C9.24021 7.01209 9.36739 7.07692 9.5 7.07692H19.5C19.6326 7.07692 19.7598 7.01209 19.8536 6.89668C19.9473 6.78127 20 6.62475 20 6.46154V5.23077C20 5.06756 19.9473 4.91103 19.8536 4.79563C19.7598 4.68022 19.6326 4.61538 19.5 4.61538ZM19.5 10.7692H9.5C9.36739 10.7692 9.24021 10.8341 9.14645 10.9495C9.05268 11.0649 9 11.2214 9 11.3846V12.6154C9 12.7786 9.05268 12.9351 9.14645 13.0505C9.24021 13.1659 9.36739 13.2308 9.5 13.2308H19.5C19.6326 13.2308 19.7598 13.1659 19.8536 13.0505C19.9473 12.9351 20 12.7786 20 12.6154V11.3846C20 11.2214 19.9473 11.0649 19.8536 10.9495C19.7598 10.8341 19.6326 10.7692 19.5 10.7692Z" fill="black"/>
</svg>
