<svg width="46" height="29" viewBox="0 0 46 29" fill="none" xmlns="http://www.w3.org/2000/svg">
<rect width="46" height="29" fill="white"/>
<path d="M23.7386 12.1654C23.714 13.9692 25.4624 14.9756 26.7795 15.5741C28.1326 16.1881 28.5871 16.5818 28.5818 17.131C28.5717 17.9713 27.5024 18.3422 26.5018 18.3566C24.7561 18.3818 23.7411 17.9171 22.9342 17.5656L22.3053 20.3096C23.1149 20.6574 24.614 20.9608 26.1686 20.9741C29.8177 20.9741 32.205 19.2945 32.218 16.6902C32.2322 13.3851 27.3153 13.2022 27.3489 11.7249C27.3605 11.2769 27.8189 10.7989 28.8233 10.6773C29.3205 10.6159 30.693 10.569 32.249 11.2371L32.8598 8.5823C32.0229 8.29818 30.9474 8.02612 29.6084 8.02612C26.1738 8.02612 23.758 9.72865 23.7386 12.1654V12.1654ZM38.7283 8.2548C38.0619 8.2548 37.5004 8.61723 37.2498 9.17341L32.0372 20.7791H35.6837L36.4093 18.9092H40.8652L41.2861 20.7791H44.5L41.6954 8.2548H38.7283V8.2548ZM39.2384 11.6381L40.2907 16.3411H37.4087L39.2384 11.6381V11.6381ZM19.3175 8.25495L16.4432 20.779H19.9179L22.7909 8.25464H19.3175V8.25495ZM14.1771 8.25464L10.5604 16.7794L9.09739 9.53115C8.92573 8.72201 8.24781 8.2548 7.49497 8.2548H1.58281L1.5 8.61848C2.71374 8.86407 4.09277 9.26018 4.92824 9.68401C5.43954 9.94292 5.58534 10.1692 5.7533 10.7845L8.52429 20.7791H12.1963L17.8259 8.2548H14.1771" fill="url(#paint0_linear_22_10302)"/>
<defs>
<linearGradient id="paint0_linear_22_10302" x1="21.2688" y1="21.2339" x2="21.6183" y2="7.93469" gradientUnits="userSpaceOnUse">
<stop stop-color="#222357"/>
<stop offset="1" stop-color="#254AA5"/>
</linearGradient>
</defs>
</svg>
